<svg width="45" height="111" viewBox="0 0 45 111" fill="none" xmlns="http://www.w3.org/2000/svg">
<path d="M32.4164 34.8748C32.3345 34.8693 32.2523 34.88 32.1746 34.9063C32.0969 34.9326 32.0251 34.974 31.9633 35.028C31.9016 35.0821 31.8511 35.1477 31.8147 35.2213C31.7784 35.2949 31.7568 35.3749 31.7514 35.4567C31.7459 35.5386 31.7567 35.6208 31.783 35.6985C31.8093 35.7762 31.8506 35.848 31.9046 35.9097C31.9587 35.9715 32.0244 36.022 32.0979 36.0584C32.1715 36.0947 32.2515 36.1163 32.3333 36.1217C32.359 36.1235 32.3846 36.1245 32.4108 36.1245C33.0801 36.1245 33.8836 35.5715 34.4256 35.0389C34.7268 34.7432 35.6918 33.7108 35.4663 32.8426C35.4254 32.685 35.3246 32.5496 35.1855 32.4652C35.0463 32.3807 34.8796 32.3539 34.721 32.3905C34.5624 32.427 34.4242 32.524 34.336 32.6608C34.2478 32.7976 34.2164 32.9635 34.2486 33.1231C34.1108 33.5206 33.8695 33.8741 33.5495 34.1472C33.2477 34.4915 32.855 34.7437 32.4164 34.8748Z" fill="#043DDB"/>
<path d="M23 3C18.2867 3.0003 13.725 4.66507 10.1194 7.70066C6.51386 10.7362 4.09615 14.9476 3.29275 19.5919C2.48935 24.2362 3.35189 29.015 5.72822 33.0854C8.10454 37.1558 11.842 40.2562 16.2813 41.8397V40.5003C16.2143 40.4745 16.1487 40.4458 16.0821 40.4192C16.1468 40.3945 16.2119 40.3698 16.2813 40.3449V39.0552C15.6901 39.2339 15.1145 39.4603 14.5601 39.7321C12.8007 38.841 11.192 37.6793 9.79278 36.2894C10.1195 36.2048 10.4165 36.0313 10.6508 35.7883C11.4073 34.99 11.2691 33.6829 11.1748 33.158C11.13 32.7276 11.1688 32.2926 11.2892 31.8769L11.3039 31.8079C11.3626 31.5603 11.4379 31.3168 11.5293 31.0793C11.1141 31.0146 10.7145 30.8738 10.3506 30.664C10.2402 30.9525 10.15 31.2484 10.0807 31.5494L10.0664 31.6175C9.90726 32.1905 9.86573 32.7898 9.9443 33.3793C10.0673 34.0619 9.98825 34.6699 9.7435 34.9283C9.63201 35.0189 9.50091 35.0821 9.36065 35.1129C9.22039 35.1437 9.07486 35.1414 8.93569 35.1059C8.86098 35.097 8.78529 35.1017 8.71225 35.1198C6.99712 33.1098 5.72875 30.7582 4.9912 28.221C4.25365 25.6837 4.06375 23.0186 4.4341 20.4024C4.4917 20.4231 4.55206 20.4351 4.6132 20.438C5.23728 20.4589 7.26395 20.6172 7.33536 21.7732C7.26125 22.6689 7.27269 23.5697 7.36954 24.4633C7.48694 25.4871 8.09403 26.1963 8.74678 26.7946C8.86169 26.3688 9.05784 25.9692 9.32444 25.6178C8.94503 25.2803 8.69332 24.8225 8.61161 24.3214C8.52249 23.4951 8.51339 22.6622 8.58445 21.8342C8.58643 21.8109 8.58704 21.7876 8.58628 21.7643C8.53775 20.2323 7.06834 19.2695 4.65532 19.1886C4.65007 19.1885 4.64523 19.1897 4.64 19.1897C4.81764 18.3353 5.05526 17.4944 5.35109 16.6734C5.59704 16.8651 5.8968 16.975 6.20835 16.9877C6.22788 16.9883 6.24678 16.9888 6.26603 16.9888C7.27982 16.9888 8.2225 16.0212 8.93387 15.1721C9.48288 14.5167 10.1707 14.1987 10.9676 13.8305C11.0988 13.7699 11.2309 13.7087 11.3637 13.6457C12.0418 13.3236 12.9878 12.7667 13.3708 11.6554C13.5697 10.9464 13.5862 10.1988 13.419 9.48176C13.4022 9.38334 13.3867 9.25654 13.3687 9.11433C13.2711 8.34265 13.1626 7.66471 12.8703 7.23435C15.1989 5.73106 17.8337 4.76653 20.5825 4.41111C20.7163 4.69631 20.7841 5.00799 20.7808 5.32298C20.7844 5.9138 20.7664 6.31755 20.4991 6.53834C20.2564 6.70905 19.9888 6.84113 19.7056 6.92989C19.5384 6.99337 19.3718 7.05715 19.2128 7.13009C18.4155 7.45045 17.6831 7.91281 17.0509 8.49468C16.5562 9.00051 16.4134 9.49932 16.627 9.97737C16.6918 10.1224 16.8094 10.2373 16.9559 10.2987C17.1024 10.3602 17.2667 10.3636 17.4156 10.3082C17.5645 10.2528 17.6867 10.1428 17.7573 10.0005C17.828 9.85828 17.8419 9.69445 17.7961 9.54235C17.8401 9.48001 17.8898 9.42188 17.9445 9.3687C18.4721 8.90012 19.0773 8.52715 19.7331 8.26655C19.8674 8.20491 20.0081 8.15211 20.1493 8.0984C20.5616 7.96483 20.9487 7.76345 21.2947 7.50254C22.0402 6.88716 22.0347 5.9788 22.0307 5.31459C22.0317 4.96607 21.9794 4.61945 21.8758 4.2867C22.248 4.26457 22.6223 4.25 23 4.25C24.6436 4.25002 26.28 4.46668 27.8669 4.89439C27.2432 5.54722 26.6013 6.56511 26.9075 7.82573C26.9117 7.84298 26.9172 7.86159 26.9227 7.87838C27.0555 8.2748 27.1107 8.84365 26.9777 9.02584C26.9365 9.08229 26.8251 9.09542 26.7323 9.09572C26.2233 9.05651 22.7763 8.86257 22.5221 10.9039L22.5242 10.904C22.5179 10.9425 22.5136 10.9814 22.5114 11.0203C22.4659 11.7958 22.296 12.1441 22.1632 12.2979C22.0573 12.3751 21.9441 12.4419 21.8254 12.4974C21.4927 12.6349 21.2039 12.8604 20.9898 13.1498C20.7501 13.5017 20.6024 13.908 20.5603 14.3316C21.1765 13.7094 22.0077 13.3468 22.8829 13.3184C22.9649 13.2597 23.0401 13.1922 23.1074 13.1172C23.6796 12.4548 23.7394 11.43 23.7593 11.0934L23.7605 11.0725L23.7623 11.0583C23.838 10.4515 25.5186 10.2496 26.6533 10.3434C26.6673 10.3447 26.6816 10.3453 26.6957 10.3456C26.9433 10.3657 27.1919 10.3226 27.4182 10.2201C27.6445 10.1177 27.8411 9.9594 27.9893 9.76009C28.5481 8.99089 28.2158 7.80972 28.1166 7.50744C27.8908 6.50623 28.8087 5.66632 29.2531 5.32614C32.1647 6.36293 34.7762 8.10068 36.857 10.3859C38.9378 12.6712 40.4239 15.4337 41.1841 18.4294C40.1501 17.9722 38.9212 18.1742 38.1767 18.2975C37.9652 18.3325 37.6911 18.3776 37.5343 18.3859C36.9143 17.7381 36.0659 17.3581 35.1698 17.3268C34.8791 17.3091 34.5884 17.3599 34.321 17.4753C34.0536 17.5906 33.8171 17.7672 33.6305 17.9908C33.4396 18.2149 33.3037 18.4805 33.2338 18.7664C33.1639 19.0524 33.1619 19.3507 33.228 19.6375C33.292 19.8665 33.3821 20.0874 33.4965 20.2958C33.5843 20.4621 33.6596 20.6347 33.7217 20.8122C33.6291 20.8662 33.526 20.8999 33.4193 20.911C33.1034 20.9661 32.7783 20.9068 32.5022 20.7436C32.4118 20.648 32.2933 20.5836 32.1638 20.5599C32.4595 21.032 32.6349 21.5694 32.6748 22.1251C32.8513 22.1576 33.0302 22.1743 33.2096 22.1751C33.3399 22.1754 33.4701 22.1664 33.599 22.1481C33.8617 22.1277 34.1154 22.0434 34.338 21.9025C34.5605 21.7615 34.7452 21.5683 34.8759 21.3395C35.1445 20.8076 34.8521 20.2165 34.6171 19.7416C34.5518 19.6191 34.495 19.4923 34.4471 19.362C34.4245 19.2636 34.4252 19.1614 34.4492 19.0634C34.4732 18.9653 34.5199 18.8743 34.5854 18.7976C34.6471 18.7216 34.7262 18.6617 34.8161 18.6229C34.9059 18.5842 35.0038 18.5677 35.1014 18.5749C35.6385 18.6044 36.3227 18.8305 36.6401 19.2689C36.9953 19.7596 37.6374 19.6536 38.3805 19.5307C39.9159 19.2768 41.1265 19.2059 41.5782 20.7508C41.5899 20.7907 41.6056 20.8294 41.625 20.8662C42.1049 24.9967 41.1948 29.1693 39.0387 32.7249C36.8825 36.2805 33.6032 39.0164 29.7187 40.5003V41.8397C34.158 40.2562 37.8955 37.1558 40.2718 33.0854C42.6481 29.015 43.5106 24.2362 42.7073 19.5919C41.9039 14.9476 39.4861 10.7362 35.8806 7.70066C32.275 4.66507 27.7133 3.0003 23 3ZM12.1284 9.27089C12.1489 9.43279 12.1675 9.57729 12.1861 9.68929C12.3125 10.2011 12.3135 10.7359 12.1892 11.2483C12.0094 11.7692 11.6023 12.1485 10.8269 12.5167C10.6984 12.5779 10.5702 12.6371 10.4433 12.6959C9.58816 13.0909 8.70438 13.4994 7.97562 14.3693C6.96244 15.5786 6.45768 15.7467 6.25413 15.7385C6.21293 15.7369 6.1168 15.7336 5.98038 15.5447C5.94528 15.4974 5.9036 15.4553 5.85659 15.4198C7.17487 12.4538 9.23632 9.87825 11.8415 7.94226C11.9853 8.13991 12.0892 8.95914 12.1284 9.27089Z" fill="#043DDB"/>
<path d="M25.1875 16.75C25.1877 16.3442 25.075 15.9465 24.8621 15.6011C24.6492 15.2557 24.3444 14.9764 23.9818 14.7942C23.6193 14.6121 23.2132 14.5345 22.809 14.5699C22.4048 14.6053 22.0185 14.7524 21.6931 14.9948C21.3677 15.2372 21.1162 15.5653 20.9666 15.9425C20.817 16.3196 20.7753 16.731 20.846 17.1305C20.9168 17.53 21.0972 17.902 21.3672 18.2048C21.6373 18.5076 21.9862 18.7294 22.375 18.8453V42.3749C22.375 42.5407 22.4408 42.6997 22.5581 42.8169C22.6753 42.9341 22.8342 42.9999 23 42.9999C23.1658 42.9999 23.3247 42.9341 23.4419 42.8169C23.5591 42.6997 23.625 42.5407 23.625 42.3749V18.8453C24.076 18.7103 24.4716 18.4336 24.753 18.0562C25.0344 17.6788 25.1868 17.2208 25.1875 16.75ZM23 17.6875C22.8146 17.6875 22.6333 17.6325 22.4792 17.5295C22.325 17.4265 22.2048 17.28 22.1339 17.1087C22.0629 16.9374 22.0443 16.7489 22.0805 16.5671C22.1167 16.3852 22.206 16.2182 22.3371 16.0871C22.4682 15.956 22.6352 15.8667 22.8171 15.8305C22.999 15.7943 23.1875 15.8129 23.3588 15.8838C23.5301 15.9548 23.6765 16.075 23.7795 16.2291C23.8825 16.3833 23.9375 16.5646 23.9375 16.75C23.9372 16.9985 23.8384 17.2368 23.6626 17.4126C23.4869 17.5883 23.2486 17.6872 23 17.6875Z" fill="#043DDB"/>
<path d="M18.1197 24.0775C18.521 23.7537 18.7948 23.2984 18.8928 22.7922C18.9908 22.286 18.9066 21.7614 18.6551 21.3113C18.4037 20.8611 18.0011 20.5144 17.5186 20.3325C17.0362 20.1505 16.5049 20.145 16.0188 20.317C15.5327 20.489 15.1231 20.8273 14.8624 21.2721C14.6017 21.717 14.5067 22.2397 14.5942 22.7478C14.6817 23.256 14.9461 23.7168 15.3407 24.0488C15.7352 24.3808 16.2344 24.5626 16.75 24.562C16.8219 24.562 16.8929 24.558 16.9631 24.5512L19.6437 31.1217C19.7968 31.4965 19.8754 31.8976 19.875 32.3025V42.3745C19.875 42.5402 19.9408 42.6992 20.0581 42.8164C20.1753 42.9336 20.3342 42.9995 20.5 42.9995C20.6658 42.9995 20.8247 42.9336 20.9419 42.8164C21.0591 42.6992 21.125 42.5402 21.125 42.3745V32.3025C21.1256 31.7357 21.0155 31.1742 20.8009 30.6496L18.1197 24.0775ZM15.8125 22.3745C15.8125 22.1891 15.8675 22.0078 15.9705 21.8537C16.0735 21.6995 16.2199 21.5793 16.3912 21.5084C16.5625 21.4374 16.751 21.4189 16.9329 21.455C17.1148 21.4912 17.2818 21.5805 17.4129 21.7116C17.544 21.8427 17.6333 22.0098 17.6695 22.1916C17.7057 22.3735 17.6871 22.562 17.6161 22.7333C17.5452 22.9046 17.425 23.051 17.2708 23.154C17.1167 23.257 16.9354 23.312 16.75 23.312C16.5014 23.3117 16.2631 23.2129 16.0874 23.0371C15.9116 22.8614 15.8128 22.6231 15.8125 22.3745Z" fill="#043DDB"/>
<path d="M17.8546 31.2148L14.0736 28.545C14.281 28.0607 14.3072 27.518 14.1473 27.0161C13.9875 26.5141 13.6523 26.0864 13.2031 25.8113C12.7539 25.5361 12.2206 25.4318 11.7009 25.5175C11.1811 25.6031 10.7095 25.873 10.3723 26.2778C10.0352 26.6825 9.85495 27.1951 9.86463 27.7218C9.87431 28.2485 10.0732 28.7541 10.4251 29.1462C10.7769 29.5383 11.2581 29.7907 11.7806 29.8572C12.3032 29.9237 12.8323 29.7999 13.2711 29.5084L17.1337 32.2359C17.2563 32.3225 17.3562 32.4372 17.4253 32.5705C17.4943 32.7037 17.5304 32.8515 17.5305 33.0016V42.3747C17.5305 42.5405 17.5963 42.6994 17.7135 42.8167C17.8307 42.9339 17.9897 42.9997 18.1555 42.9997C18.3212 42.9997 18.4802 42.9339 18.5974 42.8167C18.7146 42.6994 18.7805 42.5405 18.7805 42.3747V33.0016C18.7803 32.6514 18.6961 32.3064 18.535 31.9955C18.3739 31.6845 18.1406 31.4168 17.8546 31.2148ZM11.1242 27.6872C11.1242 27.5018 11.1792 27.3206 11.2822 27.1664C11.3852 27.0122 11.5317 26.8921 11.703 26.8211C11.8743 26.7502 12.0628 26.7316 12.2446 26.7678C12.4265 26.8039 12.5935 26.8932 12.7246 27.0243C12.8557 27.1554 12.945 27.3225 12.9812 27.5043C13.0174 27.6862 12.9988 27.8747 12.9279 28.046C12.8569 28.2173 12.7367 28.3637 12.5826 28.4667C12.4284 28.5698 12.2471 28.6247 12.0617 28.6247C11.8132 28.6245 11.5749 28.5256 11.3991 28.3499C11.2234 28.1741 11.1245 27.9358 11.1242 27.6872Z" fill="#043DDB"/>
<path d="M29.25 24.5624C29.7676 24.5636 30.269 24.3817 30.6653 24.0487C31.0617 23.7158 31.3275 23.2534 31.4157 22.7433C31.5038 22.2333 31.4087 21.7084 31.1471 21.2618C30.8855 20.8151 30.4743 20.4754 29.9863 20.3028C29.4983 20.1301 28.965 20.1357 28.4807 20.3185C27.9964 20.5014 27.5925 20.8496 27.3403 21.3017C27.0881 21.7537 27.004 22.2804 27.1028 22.7885C27.2017 23.2966 27.4771 23.7534 27.8803 24.0779L25.1991 30.6504C24.9845 31.1749 24.8744 31.7362 24.875 32.3029V42.3749C24.875 42.5407 24.9408 42.6996 25.0581 42.8168C25.1753 42.9341 25.3342 42.9999 25.5 42.9999C25.6658 42.9999 25.8247 42.9341 25.9419 42.8168C26.0592 42.6996 26.125 42.5407 26.125 42.3749V32.3029C26.1246 31.8981 26.2032 31.4972 26.3563 31.1225L29.0369 24.5517C29.1071 24.5585 29.1781 24.5624 29.25 24.5624ZM29.25 21.4374C29.4354 21.4374 29.6167 21.4924 29.7708 21.5954C29.925 21.6985 30.0452 21.8449 30.1161 22.0162C30.1871 22.1875 30.2057 22.376 30.1695 22.5578C30.1333 22.7397 30.044 22.9067 29.9129 23.0379C29.7818 23.169 29.6147 23.2583 29.4329 23.2944C29.251 23.3306 29.0625 23.312 28.8912 23.2411C28.7199 23.1701 28.5735 23.05 28.4705 22.8958C28.3675 22.7416 28.3125 22.5604 28.3125 22.3749C28.3128 22.1264 28.4116 21.8881 28.5874 21.7123C28.7631 21.5366 29.0014 21.4377 29.25 21.4374Z" fill="#043DDB"/>
<path d="M33.9375 29.8752C34.4081 29.8755 34.8663 29.7241 35.2441 29.4434C35.6219 29.1628 35.8992 28.7678 36.0348 28.3172C36.1704 27.8665 36.1572 27.3841 35.997 26.9416C35.8369 26.499 35.5384 26.1199 35.1457 25.8604C34.7531 25.6009 34.2873 25.4748 33.8174 25.5009C33.3475 25.527 32.8985 25.7039 32.5371 26.0053C32.1756 26.3067 31.9209 26.7166 31.8108 27.1741C31.7006 27.6317 31.7409 28.1126 31.9256 28.5455L28.1447 31.2152C27.8587 31.4173 27.6253 31.685 27.4642 31.9959C27.3031 32.3068 27.2189 32.6519 27.2188 33.002V42.3752C27.2188 42.541 27.2846 42.6999 27.4018 42.8171C27.519 42.9343 27.678 43.0002 27.8437 43.0002C28.0095 43.0002 28.1685 42.9343 28.2857 42.8171C28.4029 42.6999 28.4687 42.541 28.4687 42.3752V33.002C28.4688 32.852 28.5049 32.7042 28.5739 32.5709C28.643 32.4377 28.7429 32.323 28.8655 32.2364L32.7282 29.5089C33.0861 29.748 33.507 29.8755 33.9375 29.8752ZM33.9375 26.7502C34.1229 26.7502 34.3042 26.8052 34.4583 26.9082C34.6125 27.0112 34.7327 27.1577 34.8036 27.329C34.8746 27.5003 34.8931 27.6888 34.857 27.8706C34.8208 28.0525 34.7315 28.2195 34.6004 28.3506C34.4693 28.4817 34.3022 28.571 34.1204 28.6072C33.9385 28.6434 33.75 28.6248 33.5787 28.5539C33.4074 28.4829 33.261 28.3627 33.158 28.2086C33.055 28.0544 33 27.8731 33 27.6877C33.0003 27.4392 33.0991 27.2009 33.2749 27.0251C33.4506 26.8494 33.6889 26.7505 33.9375 26.7502Z" fill="#043DDB"/>
<path d="M32.4164 94.8748C32.3345 94.8693 32.2523 94.88 32.1746 94.9063C32.0969 94.9326 32.0251 94.974 31.9633 95.028C31.9016 95.0821 31.8511 95.1477 31.8147 95.2213C31.7784 95.2949 31.7568 95.3749 31.7514 95.4567C31.7459 95.5386 31.7567 95.6208 31.783 95.6985C31.8093 95.7762 31.8506 95.848 31.9046 95.9097C31.9587 95.9715 32.0244 96.022 32.0979 96.0584C32.1715 96.0947 32.2515 96.1163 32.3333 96.1217C32.359 96.1235 32.3846 96.1245 32.4108 96.1245C33.0801 96.1245 33.8836 95.5715 34.4256 95.0389C34.7268 94.7432 35.6918 93.7108 35.4663 92.8426C35.4254 92.685 35.3246 92.5496 35.1855 92.4652C35.0463 92.3807 34.8796 92.3539 34.721 92.3905C34.5624 92.427 34.4242 92.524 34.336 92.6608C34.2478 92.7976 34.2164 92.9635 34.2486 93.1231C34.1108 93.5206 33.8695 93.8741 33.5495 94.1472C33.2477 94.4915 32.855 94.7437 32.4164 94.8748Z" fill="white"/>
<path d="M23 63C18.2867 63.0003 13.725 64.6651 10.1194 67.7007C6.51386 70.7362 4.09615 74.9476 3.29275 79.5919C2.48935 84.2362 3.35189 89.015 5.72822 93.0854C8.10454 97.1558 11.842 100.256 16.2813 101.84V100.5C16.2143 100.475 16.1487 100.446 16.0821 100.419C16.1468 100.395 16.2119 100.37 16.2813 100.345V99.0552C15.6901 99.2339 15.1145 99.4603 14.5601 99.7321C12.8007 98.841 11.192 97.6793 9.79278 96.2894C10.1195 96.2048 10.4165 96.0313 10.6508 95.7883C11.4073 94.99 11.2691 93.6829 11.1748 93.158C11.13 92.7276 11.1688 92.2926 11.2892 91.8769L11.3039 91.8079C11.3626 91.5603 11.4379 91.3168 11.5293 91.0793C11.1141 91.0146 10.7145 90.8738 10.3506 90.664C10.2402 90.9525 10.15 91.2484 10.0807 91.5494L10.0664 91.6175C9.90726 92.1905 9.86573 92.7898 9.9443 93.3793C10.0673 94.0619 9.98825 94.6699 9.7435 94.9283C9.63201 95.0189 9.50091 95.0821 9.36065 95.1129C9.22039 95.1437 9.07486 95.1414 8.93569 95.1059C8.86098 95.097 8.78529 95.1017 8.71225 95.1198C6.99712 93.1098 5.72875 90.7582 4.9912 88.221C4.25365 85.6837 4.06375 83.0186 4.4341 80.4024C4.4917 80.4231 4.55206 80.4351 4.6132 80.438C5.23728 80.4589 7.26395 80.6172 7.33536 81.7732C7.26125 82.6689 7.27269 83.5697 7.36954 84.4633C7.48694 85.4871 8.09403 86.1963 8.74678 86.7946C8.86169 86.3688 9.05784 85.9692 9.32444 85.6178C8.94503 85.2803 8.69332 84.8225 8.61161 84.3214C8.52249 83.4951 8.51339 82.6622 8.58445 81.8342C8.58643 81.8109 8.58704 81.7876 8.58628 81.7643C8.53775 80.2323 7.06834 79.2695 4.65532 79.1886C4.65007 79.1885 4.64523 79.1897 4.64 79.1897C4.81764 78.3353 5.05526 77.4944 5.35109 76.6734C5.59704 76.8651 5.8968 76.975 6.20835 76.9877C6.22788 76.9883 6.24678 76.9888 6.26603 76.9888C7.27982 76.9888 8.2225 76.0212 8.93387 75.1721C9.48288 74.5167 10.1707 74.1987 10.9676 73.8305C11.0988 73.7699 11.2309 73.7087 11.3637 73.6457C12.0418 73.3236 12.9878 72.7667 13.3708 71.6554C13.5697 70.9464 13.5862 70.1988 13.419 69.4818C13.4022 69.3833 13.3867 69.2565 13.3687 69.1143C13.2711 68.3427 13.1626 67.6647 12.8703 67.2344C15.1989 65.7311 17.8337 64.7665 20.5825 64.4111C20.7163 64.6963 20.7841 65.008 20.7808 65.323C20.7844 65.9138 20.7664 66.3175 20.4991 66.5383C20.2564 66.7091 19.9888 66.8411 19.7056 66.9299C19.5384 66.9934 19.3718 67.0572 19.2128 67.1301C18.4155 67.4505 17.6831 67.9128 17.0509 68.4947C16.5562 69.0005 16.4134 69.4993 16.627 69.9774C16.6918 70.1224 16.8094 70.2373 16.9559 70.2987C17.1024 70.3602 17.2667 70.3636 17.4156 70.3082C17.5645 70.2528 17.6867 70.1428 17.7573 70.0005C17.828 69.8583 17.8419 69.6945 17.7961 69.5423C17.8401 69.48 17.8898 69.4219 17.9445 69.3687C18.4721 68.9001 19.0773 68.5271 19.7331 68.2666C19.8674 68.2049 20.0081 68.1521 20.1493 68.0984C20.5616 67.9648 20.9487 67.7634 21.2947 67.5025C22.0402 66.8872 22.0347 65.9788 22.0307 65.3146C22.0317 64.9661 21.9794 64.6194 21.8758 64.2867C22.248 64.2646 22.6223 64.25 23 64.25C24.6436 64.25 26.28 64.4667 27.8669 64.8944C27.2432 65.5472 26.6013 66.5651 26.9075 67.8257C26.9117 67.843 26.9172 67.8616 26.9227 67.8784C27.0555 68.2748 27.1107 68.8436 26.9777 69.0258C26.9365 69.0823 26.8251 69.0954 26.7323 69.0957C26.2233 69.0565 22.7763 68.8626 22.5221 70.9039L22.5242 70.904C22.5179 70.9425 22.5136 70.9814 22.5114 71.0203C22.4659 71.7958 22.296 72.1441 22.1632 72.2979C22.0573 72.3751 21.9441 72.4419 21.8254 72.4974C21.4927 72.6349 21.2039 72.8604 20.9898 73.1498C20.7501 73.5017 20.6024 73.908 20.5603 74.3316C21.1765 73.7094 22.0077 73.3468 22.8829 73.3184C22.9649 73.2597 23.0401 73.1922 23.1074 73.1172C23.6796 72.4548 23.7394 71.43 23.7593 71.0934L23.7605 71.0725L23.7623 71.0583C23.838 70.4515 25.5186 70.2496 26.6533 70.3434C26.6673 70.3447 26.6816 70.3453 26.6957 70.3456C26.9433 70.3657 27.1919 70.3226 27.4182 70.2201C27.6445 70.1177 27.8411 69.9594 27.9893 69.7601C28.5481 68.9909 28.2158 67.8097 28.1166 67.5074C27.8908 66.5062 28.8087 65.6663 29.2531 65.3261C32.1647 66.3629 34.7762 68.1007 36.857 70.3859C38.9378 72.6712 40.4239 75.4337 41.1841 78.4294C40.1501 77.9722 38.9212 78.1742 38.1767 78.2975C37.9652 78.3325 37.6911 78.3776 37.5343 78.3859C36.9143 77.7381 36.0659 77.3581 35.1698 77.3268C34.8791 77.3091 34.5884 77.3599 34.321 77.4753C34.0536 77.5906 33.8171 77.7672 33.6305 77.9908C33.4396 78.2149 33.3037 78.4805 33.2338 78.7664C33.1639 79.0524 33.1619 79.3507 33.228 79.6375C33.292 79.8665 33.3821 80.0874 33.4965 80.2958C33.5843 80.4621 33.6596 80.6347 33.7217 80.8122C33.6291 80.8662 33.526 80.8999 33.4193 80.911C33.1034 80.9661 32.7783 80.9068 32.5022 80.7436C32.4118 80.648 32.2933 80.5836 32.1638 80.5599C32.4595 81.032 32.6349 81.5694 32.6748 82.1251C32.8513 82.1576 33.0302 82.1743 33.2096 82.1751C33.3399 82.1754 33.4701 82.1664 33.599 82.1481C33.8617 82.1277 34.1154 82.0434 34.338 81.9025C34.5605 81.7615 34.7452 81.5683 34.8759 81.3395C35.1445 80.8076 34.8521 80.2165 34.6171 79.7416C34.5518 79.6191 34.495 79.4923 34.4471 79.362C34.4245 79.2636 34.4252 79.1614 34.4492 79.0634C34.4732 78.9653 34.5199 78.8743 34.5854 78.7976C34.6471 78.7216 34.7262 78.6617 34.8161 78.6229C34.9059 78.5842 35.0038 78.5677 35.1014 78.5749C35.6385 78.6044 36.3227 78.8305 36.6401 79.2689C36.9953 79.7596 37.6374 79.6536 38.3805 79.5307C39.9159 79.2768 41.1265 79.2059 41.5782 80.7508C41.5899 80.7907 41.6056 80.8294 41.625 80.8662C42.1049 84.9967 41.1948 89.1693 39.0387 92.7249C36.8825 96.2805 33.6032 99.0164 29.7187 100.5V101.84C34.158 100.256 37.8955 97.1558 40.2718 93.0854C42.6481 89.015 43.5106 84.2362 42.7073 79.5919C41.9039 74.9476 39.4861 70.7362 35.8806 67.7007C32.275 64.6651 27.7133 63.0003 23 63ZM12.1284 69.2709C12.1489 69.4328 12.1675 69.5773 12.1861 69.6893C12.3125 70.2011 12.3135 70.7359 12.1892 71.2483C12.0094 71.7692 11.6023 72.1485 10.8269 72.5167C10.6984 72.5779 10.5702 72.6371 10.4433 72.6959C9.58816 73.0909 8.70438 73.4994 7.97562 74.3693C6.96244 75.5786 6.45768 75.7467 6.25413 75.7385C6.21293 75.7369 6.1168 75.7336 5.98038 75.5447C5.94528 75.4974 5.9036 75.4553 5.85659 75.4198C7.17487 72.4538 9.23632 69.8782 11.8415 67.9423C11.9853 68.1399 12.0892 68.9591 12.1284 69.2709Z" fill="white"/>
<path d="M25.1875 76.75C25.1877 76.3442 25.075 75.9465 24.8621 75.6011C24.6492 75.2557 24.3444 74.9764 23.9818 74.7942C23.6193 74.6121 23.2132 74.5345 22.809 74.5699C22.4048 74.6053 22.0185 74.7524 21.6931 74.9948C21.3677 75.2372 21.1162 75.5653 20.9666 75.9425C20.817 76.3196 20.7753 76.731 20.846 77.1305C20.9168 77.53 21.0972 77.902 21.3672 78.2048C21.6373 78.5076 21.9862 78.7294 22.375 78.8453V102.375C22.375 102.541 22.4408 102.7 22.5581 102.817C22.6753 102.934 22.8342 103 23 103C23.1658 103 23.3247 102.934 23.4419 102.817C23.5591 102.7 23.625 102.541 23.625 102.375V78.8453C24.076 78.7103 24.4716 78.4336 24.753 78.0562C25.0344 77.6788 25.1868 77.2208 25.1875 76.75ZM23 77.6875C22.8146 77.6875 22.6333 77.6325 22.4792 77.5295C22.325 77.4265 22.2048 77.28 22.1339 77.1087C22.0629 76.9374 22.0443 76.7489 22.0805 76.5671C22.1167 76.3852 22.206 76.2182 22.3371 76.0871C22.4682 75.956 22.6352 75.8667 22.8171 75.8305C22.999 75.7943 23.1875 75.8129 23.3588 75.8838C23.5301 75.9548 23.6765 76.075 23.7795 76.2291C23.8825 76.3833 23.9375 76.5646 23.9375 76.75C23.9372 76.9985 23.8384 77.2368 23.6626 77.4126C23.4869 77.5883 23.2486 77.6872 23 77.6875Z" fill="white"/>
<path d="M18.1197 84.0775C18.521 83.7537 18.7948 83.2984 18.8928 82.7922C18.9908 82.286 18.9066 81.7614 18.6551 81.3113C18.4037 80.8611 18.0011 80.5144 17.5186 80.3325C17.0362 80.1505 16.5049 80.145 16.0188 80.317C15.5327 80.489 15.1231 80.8273 14.8624 81.2721C14.6017 81.717 14.5067 82.2397 14.5942 82.7478C14.6817 83.256 14.9461 83.7168 15.3407 84.0488C15.7352 84.3808 16.2344 84.5626 16.75 84.562C16.8219 84.562 16.8929 84.558 16.9631 84.5512L19.6437 91.1217C19.7968 91.4965 19.8754 91.8976 19.875 92.3025V102.374C19.875 102.54 19.9408 102.699 20.0581 102.816C20.1753 102.934 20.3342 102.999 20.5 102.999C20.6658 102.999 20.8247 102.934 20.9419 102.816C21.0591 102.699 21.125 102.54 21.125 102.374V92.3025C21.1256 91.7357 21.0155 91.1742 20.8009 90.6496L18.1197 84.0775ZM15.8125 82.3745C15.8125 82.1891 15.8675 82.0078 15.9705 81.8537C16.0735 81.6995 16.2199 81.5793 16.3912 81.5084C16.5625 81.4374 16.751 81.4189 16.9329 81.455C17.1148 81.4912 17.2818 81.5805 17.4129 81.7116C17.544 81.8427 17.6333 82.0098 17.6695 82.1916C17.7057 82.3735 17.6871 82.562 17.6161 82.7333C17.5452 82.9046 17.425 83.051 17.2708 83.154C17.1167 83.257 16.9354 83.312 16.75 83.312C16.5014 83.3117 16.2631 83.2129 16.0874 83.0371C15.9116 82.8614 15.8128 82.6231 15.8125 82.3745Z" fill="white"/>
<path d="M17.8546 91.2148L14.0736 88.545C14.281 88.0607 14.3072 87.518 14.1473 87.0161C13.9875 86.5141 13.6523 86.0864 13.2031 85.8113C12.7539 85.5361 12.2206 85.4318 11.7009 85.5175C11.1811 85.6031 10.7095 85.873 10.3723 86.2778C10.0352 86.6825 9.85495 87.1951 9.86463 87.7218C9.87431 88.2485 10.0732 88.7541 10.4251 89.1462C10.7769 89.5383 11.2581 89.7907 11.7806 89.8572C12.3032 89.9237 12.8323 89.7999 13.2711 89.5084L17.1337 92.2359C17.2563 92.3225 17.3562 92.4372 17.4253 92.5705C17.4943 92.7037 17.5304 92.8515 17.5305 93.0016V102.375C17.5305 102.54 17.5963 102.699 17.7135 102.817C17.8307 102.934 17.9897 103 18.1555 103C18.3212 103 18.4802 102.934 18.5974 102.817C18.7146 102.699 18.7805 102.54 18.7805 102.375V93.0016C18.7803 92.6514 18.6961 92.3064 18.535 91.9955C18.3739 91.6845 18.1406 91.4168 17.8546 91.2148ZM11.1242 87.6872C11.1242 87.5018 11.1792 87.3206 11.2822 87.1664C11.3852 87.0122 11.5317 86.8921 11.703 86.8211C11.8743 86.7502 12.0628 86.7316 12.2446 86.7678C12.4265 86.8039 12.5935 86.8932 12.7246 87.0243C12.8557 87.1554 12.945 87.3225 12.9812 87.5043C13.0174 87.6862 12.9988 87.8747 12.9279 88.046C12.8569 88.2173 12.7367 88.3637 12.5826 88.4667C12.4284 88.5698 12.2471 88.6247 12.0617 88.6247C11.8132 88.6245 11.5749 88.5256 11.3991 88.3499C11.2234 88.1741 11.1245 87.9358 11.1242 87.6872Z" fill="white"/>
<path d="M29.25 84.5624C29.7676 84.5636 30.269 84.3817 30.6653 84.0487C31.0617 83.7158 31.3275 83.2534 31.4157 82.7433C31.5038 82.2333 31.4087 81.7084 31.1471 81.2618C30.8855 80.8151 30.4743 80.4754 29.9863 80.3028C29.4983 80.1301 28.965 80.1357 28.4807 80.3185C27.9964 80.5014 27.5925 80.8496 27.3403 81.3017C27.0881 81.7537 27.004 82.2804 27.1028 82.7885C27.2017 83.2966 27.4771 83.7534 27.8803 84.0779L25.1991 90.6504C24.9845 91.1749 24.8744 91.7362 24.875 92.3029V102.375C24.875 102.541 24.9408 102.7 25.0581 102.817C25.1753 102.934 25.3342 103 25.5 103C25.6658 103 25.8247 102.934 25.9419 102.817C26.0592 102.7 26.125 102.541 26.125 102.375V92.3029C26.1246 91.8981 26.2032 91.4972 26.3563 91.1225L29.0369 84.5517C29.1071 84.5585 29.1781 84.5624 29.25 84.5624ZM29.25 81.4374C29.4354 81.4374 29.6167 81.4924 29.7708 81.5954C29.925 81.6985 30.0452 81.8449 30.1161 82.0162C30.1871 82.1875 30.2057 82.376 30.1695 82.5578C30.1333 82.7397 30.044 82.9067 29.9129 83.0379C29.7818 83.169 29.6147 83.2583 29.4329 83.2944C29.251 83.3306 29.0625 83.312 28.8912 83.2411C28.7199 83.1701 28.5735 83.05 28.4705 82.8958C28.3675 82.7416 28.3125 82.5604 28.3125 82.3749C28.3128 82.1264 28.4116 81.8881 28.5874 81.7123C28.7631 81.5366 29.0014 81.4377 29.25 81.4374Z" fill="white"/>
<path d="M33.9375 89.8752C34.4081 89.8755 34.8663 89.7241 35.2441 89.4434C35.6219 89.1628 35.8992 88.7678 36.0348 88.3172C36.1704 87.8665 36.1572 87.3841 35.997 86.9416C35.8369 86.499 35.5384 86.1199 35.1457 85.8604C34.7531 85.6009 34.2873 85.4748 33.8174 85.5009C33.3475 85.527 32.8985 85.7039 32.5371 86.0053C32.1756 86.3067 31.9209 86.7166 31.8108 87.1741C31.7006 87.6317 31.7409 88.1126 31.9256 88.5455L28.1447 91.2152C27.8587 91.4173 27.6253 91.685 27.4642 91.9959C27.3031 92.3068 27.2189 92.6519 27.2188 93.002V102.375C27.2188 102.541 27.2846 102.7 27.4018 102.817C27.519 102.934 27.678 103 27.8437 103C28.0095 103 28.1685 102.934 28.2857 102.817C28.4029 102.7 28.4687 102.541 28.4687 102.375V93.002C28.4688 92.852 28.5049 92.7042 28.5739 92.5709C28.643 92.4377 28.7429 92.323 28.8655 92.2364L32.7282 89.5089C33.0861 89.748 33.507 89.8755 33.9375 89.8752ZM33.9375 86.7502C34.1229 86.7502 34.3042 86.8052 34.4583 86.9082C34.6125 87.0112 34.7327 87.1577 34.8036 87.329C34.8746 87.5003 34.8931 87.6888 34.857 87.8706C34.8208 88.0525 34.7315 88.2195 34.6004 88.3506C34.4693 88.4817 34.3022 88.571 34.1204 88.6072C33.9385 88.6434 33.75 88.6248 33.5787 88.5539C33.4074 88.4829 33.261 88.3627 33.158 88.2086C33.055 88.0544 33 87.8731 33 87.6877C33.0003 87.4392 33.0991 87.2009 33.2749 87.0251C33.4506 86.8494 33.6889 86.7505 33.9375 86.7502Z" fill="white"/>
</svg>
