<svg width="45" height="111" viewBox="0 0 45 111" fill="none" xmlns="http://www.w3.org/2000/svg">
<path d="M28.4646 34.3717H27.0755C27.0755 33.1441 26.5878 31.9667 25.7197 31.0986C24.8516 30.2306 23.6743 29.7429 22.4467 29.7429C21.219 29.7429 20.0417 30.2306 19.1736 31.0986C18.3055 31.9667 17.8179 33.1441 17.8179 34.3717H16.4287C16.4287 32.7756 17.0627 31.245 18.1913 30.1164C19.3199 28.9878 20.8506 28.3538 22.4467 28.3538C24.0427 28.3538 25.5734 28.9878 26.702 30.1164C27.8306 31.245 28.4646 32.7756 28.4646 34.3717Z" fill="#043DDB"/>
<path d="M28.2725 23.4719H28.7187C28.7187 21.8086 28.0579 20.2134 26.8818 19.0373C25.7057 17.8612 24.1105 17.2004 22.4472 17.2004C20.7839 17.2004 19.1888 17.8612 18.0126 19.0373C16.8365 20.2134 16.1758 21.8086 16.1758 23.4719H17.5649C17.5691 22.2624 18.022 21.0975 18.836 20.203C19.65 19.3084 20.767 18.7478 21.9707 18.6297C23.1744 18.5117 24.3791 18.8446 25.3513 19.5641C26.3236 20.2835 26.9942 21.3382 27.2332 22.5238C27.2004 22.5621 27.1731 22.6047 27.1521 22.6506C27.0838 22.7732 27.0058 22.8902 26.9189 23.0004C26.8008 21.9017 26.2829 20.8848 25.4636 20.1433C24.6444 19.4018 23.581 18.9875 22.4761 18.9793C21.3711 18.9711 20.3017 19.3695 19.4715 20.0987C18.6413 20.8279 18.1083 21.837 17.9739 22.9338C17.8395 24.0306 18.1132 25.1385 18.7429 26.0466C19.3725 26.9546 20.3141 27.5994 21.3884 27.8581C22.4627 28.1169 23.5946 27.9715 24.5686 27.4496C25.5426 26.9278 26.2907 26.066 26.6704 25.0283C27.3275 24.6534 27.8787 24.1179 28.2725 23.4719ZM22.4472 26.5797C21.8325 26.5797 21.2317 26.3974 20.7206 26.0559C20.2095 25.7145 19.8112 25.2291 19.576 24.6612C19.3407 24.0933 19.2792 23.4684 19.3991 22.8656C19.519 22.2627 19.815 21.7089 20.2496 21.2743C20.6843 20.8397 21.238 20.5437 21.8409 20.4238C22.4438 20.3038 23.0687 20.3654 23.6365 20.6006C24.2044 20.8358 24.6898 21.2342 25.0313 21.7453C25.3728 22.2563 25.5551 22.8572 25.5551 23.4719C25.5512 23.6678 25.5292 23.863 25.4891 24.0549C24.5865 24.4583 23.6241 24.7117 22.6399 24.8053C22.4557 24.812 22.2817 24.8916 22.1562 25.0266C22.0307 25.1616 21.9639 25.341 21.9707 25.5252C21.9774 25.7094 22.057 25.8834 22.192 26.0089C22.327 26.1344 22.5064 26.2011 22.6906 26.1944H22.7413C23.2835 26.1439 23.8209 26.0507 24.3484 25.9156C23.8071 26.3439 23.1375 26.5778 22.4472 26.5797Z" fill="#043DDB"/>
<path d="M23.2673 38.5503V36.1472C23.2673 35.963 23.1941 35.7863 23.0639 35.6561C22.9336 35.5258 22.757 35.4526 22.5727 35.4526C22.3885 35.4526 22.2119 35.5258 22.0816 35.6561C21.9514 35.7863 21.8782 35.963 21.8782 36.1472V38.5503C20.6914 38.7257 19.615 39.3436 18.865 40.2799C18.1151 41.2162 17.7471 42.4016 17.8351 43.598C17.923 44.7944 18.4603 45.9132 19.3391 46.7298C20.2179 47.5464 21.3731 48.0002 22.5727 48.0002C23.7724 48.0002 24.9276 47.5464 25.8064 46.7298C26.6852 45.9132 27.2225 44.7944 27.3104 43.598C27.3984 42.4016 27.0304 41.2162 26.2805 40.2799C25.5305 39.3436 24.4541 38.7257 23.2673 38.5503ZM22.5727 46.6064C21.9079 46.6064 21.2581 46.4092 20.7053 46.0399C20.1525 45.6705 19.7217 45.1456 19.4673 44.5314C19.2129 43.9172 19.1463 43.2413 19.276 42.5893C19.4057 41.9372 19.7258 41.3383 20.1959 40.8682C20.666 40.3981 21.265 40.078 21.917 39.9483C22.569 39.8186 23.2449 39.8852 23.8591 40.1396C24.4733 40.394 24.9982 40.8248 25.3676 41.3776C25.7369 41.9304 25.9341 42.5802 25.9341 43.245C25.9327 44.1361 25.5782 44.9903 24.9481 45.6204C24.318 46.2505 23.4638 46.605 22.5727 46.6064Z" fill="#043DDB"/>
<path d="M27.0703 7.75519C27.0712 6.8451 26.8106 5.95391 26.3197 5.18762C25.8287 4.42133 25.1279 3.81221 24.3007 3.43271C23.4735 3.05322 22.5547 2.91932 21.6536 3.04695C20.7525 3.17458 19.907 3.55836 19.2178 4.15265C18.5285 4.74693 18.0245 5.52671 17.7656 6.3992C17.5067 7.2717 17.5039 8.2002 17.7575 9.07424C18.0111 9.94828 18.5104 10.7311 19.1961 11.3295C19.8818 11.928 20.7249 12.3168 21.6252 12.4499V14.853C21.6252 15.0372 21.6984 15.2139 21.8287 15.3442C21.9589 15.4744 22.1356 15.5476 22.3198 15.5476C22.504 15.5476 22.6807 15.4744 22.8109 15.3442C22.9412 15.2139 23.0144 15.0372 23.0144 14.853V12.4499C24.1404 12.2824 25.1691 11.7165 25.9133 10.855C26.6576 9.99354 27.0681 8.89365 27.0703 7.75519ZM22.3198 11.1165C21.655 11.1165 21.0051 10.9194 20.4524 10.55C19.8996 10.1807 19.4688 9.65572 19.2143 9.04152C18.9599 8.42732 18.8934 7.75147 19.0231 7.09943C19.1528 6.4474 19.4729 5.84847 19.943 5.37838C20.4131 4.90829 21.012 4.58815 21.664 4.45845C22.3161 4.32876 22.9919 4.39532 23.6061 4.64973C24.2203 4.90414 24.7453 5.33497 25.1147 5.88774C25.484 6.44051 25.6811 7.09039 25.6811 7.75519C25.6798 8.64626 25.3252 9.50045 24.6951 10.1305C24.0651 10.7606 23.2109 11.1152 22.3198 11.1165Z" fill="#043DDB"/>
<path d="M13.3213 20.0144L11.197 18.8889C11.5269 17.9422 11.5474 16.9151 11.2557 15.956C10.9639 14.9968 10.375 14.1552 9.57382 13.5525C8.77265 12.9498 7.80072 12.6172 6.79827 12.6028C5.79583 12.5884 4.81472 12.8928 3.99654 13.4722C3.17837 14.0516 2.56544 14.8759 2.24621 15.8263C1.92698 16.7767 1.91796 17.8039 2.22045 18.7597C2.52295 19.7155 3.12131 20.5505 3.92919 21.1442C4.73707 21.7379 5.71268 22.0595 6.71522 22.0627C7.19135 22.0622 7.66472 21.9905 8.11958 21.8497C9.09304 21.5506 9.94333 20.944 10.543 20.1209L12.6673 21.2464C12.7681 21.297 12.8789 21.3247 12.9917 21.3275C13.1465 21.326 13.2964 21.2733 13.4179 21.1775C13.5395 21.0817 13.6258 20.9483 13.6635 20.7982C13.7012 20.6481 13.688 20.4898 13.6261 20.3479C13.5642 20.2061 13.457 20.0888 13.3213 20.0144ZM7.70892 20.5214C7.28681 20.6522 6.84307 20.6987 6.40302 20.658C5.96298 20.6173 5.53526 20.4904 5.14427 20.2844C4.75329 20.0784 4.4067 19.7975 4.1243 19.4576C3.8419 19.1177 3.62921 18.7255 3.49838 18.3033C3.36756 17.8812 3.32115 17.4375 3.36182 16.9975C3.40248 16.5574 3.52942 16.1297 3.73539 15.7387C3.94136 15.3477 4.22232 15.0011 4.56223 14.7187C4.90214 14.4363 5.29435 14.2236 5.71646 14.0928C6.13771 13.9609 6.58099 13.914 7.02052 13.9549C7.46005 13.9958 7.88706 14.1237 8.27674 14.3311C8.66998 14.537 9.01847 14.8188 9.30205 15.1603C9.58562 15.5018 9.79865 15.8961 9.92879 16.3205C10.0589 16.7448 10.1036 17.1908 10.0602 17.6326C10.0168 18.0743 9.88624 18.5031 9.67603 18.894C9.46909 19.2825 9.18744 19.6262 8.84725 19.9055C8.50706 20.1848 8.11504 20.3941 7.69371 20.5214H7.70892Z" fill="#043DDB"/>
<path d="M42.7275 32.2939C42.4696 31.4521 41.9827 30.6987 41.3211 30.1179C40.6596 29.537 39.8495 29.1517 38.9814 29.0049C38.1134 28.8581 37.2216 28.9557 36.4058 29.2867C35.5901 29.6178 34.8825 30.1692 34.3622 30.8794L32.2379 29.7539C32.157 29.7103 32.0683 29.683 31.9769 29.6737C31.8855 29.6644 31.7931 29.6731 31.7051 29.6995C31.6171 29.7259 31.5351 29.7693 31.4638 29.8274C31.3926 29.8854 31.3335 29.9569 31.2899 30.0378C31.2463 30.1187 31.219 30.2074 31.2097 30.2988C31.2003 30.3902 31.2091 30.4826 31.2355 30.5706C31.2618 30.6587 31.3053 30.7407 31.3633 30.8119C31.4214 30.8832 31.4929 30.9423 31.5738 30.9859L33.6981 32.1114C33.4472 32.826 33.3711 33.5902 33.476 34.3403C33.5808 35.0903 33.8637 35.8043 34.3009 36.4227C34.7382 37.0411 35.3171 37.5458 35.9892 37.8948C36.6614 38.2437 37.4073 38.4267 38.1646 38.4285C38.9081 38.4303 39.6416 38.2578 40.3063 37.9248C40.971 37.5918 41.5484 37.1076 41.9921 36.5111C42.4358 35.9146 42.7334 35.2223 42.8611 34.4899C42.9889 33.7575 42.9431 33.0054 42.7275 32.2939ZM41.1558 35.2649C40.9489 35.6571 40.6666 36.0046 40.325 36.2875C39.9834 36.5703 39.5892 36.7828 39.1652 36.9128C38.7412 37.0429 38.2957 37.0878 37.8543 37.0451C37.4128 37.0025 36.9842 36.873 36.593 36.6641C36.1997 36.4583 35.8512 36.1764 35.5676 35.8349C35.2841 35.4935 35.0711 35.0991 34.9409 34.6748C34.8108 34.2504 34.7661 33.8044 34.8095 33.3627C34.8529 32.9209 34.9835 32.4922 35.1937 32.1012C35.6171 31.3253 36.3291 30.7473 37.1756 30.4925C38.022 30.2377 38.9348 30.3266 39.7162 30.74C40.4975 31.1534 41.0846 31.8579 41.3503 32.701C41.616 33.5441 41.5388 34.4579 41.1356 35.2446L41.1558 35.2649Z" fill="#043DDB"/>
<path d="M13.9391 30.6661C13.8925 30.5874 13.831 30.5187 13.7579 30.4639C13.6847 30.4091 13.6015 30.3692 13.513 30.3466C13.4244 30.324 13.3323 30.3191 13.2419 30.3322C13.1514 30.3452 13.0644 30.376 12.9859 30.4228L10.9174 31.6446C10.1612 30.7185 9.0835 30.1115 7.89948 29.945C6.71546 29.7785 5.51219 30.0645 4.52981 30.7461C3.54743 31.4277 2.8582 32.4547 2.59968 33.6221C2.34116 34.7895 2.53237 36.0114 3.13514 37.044C3.74759 38.0694 4.72379 38.8264 5.86933 39.1644C7.01486 39.5023 8.24566 39.3964 9.31658 38.8676C10.3875 38.3389 11.22 37.4261 11.6482 36.3112C12.0764 35.1962 12.0689 33.9609 11.6272 32.8512L13.6957 31.6294C13.7757 31.5829 13.8457 31.5208 13.9014 31.4469C13.9571 31.373 13.9975 31.2887 14.0201 31.199C14.0428 31.1092 14.0473 31.0159 14.0334 30.9244C14.0195 30.8328 13.9874 30.745 13.9391 30.6661ZM8.93508 37.5206C8.4901 37.7798 7.99143 37.9332 7.47767 37.9688C6.96391 38.0044 6.44885 37.9214 5.97235 37.726C5.49585 37.5306 5.0707 37.2282 4.72981 36.8422C4.38892 36.4562 4.14143 35.9969 4.00651 35.4999C3.87158 35.0029 3.85284 34.4815 3.95173 33.9761C4.05062 33.4707 4.2645 32.9948 4.57679 32.5853C4.88909 32.1758 5.29143 31.8437 5.75267 31.6146C6.21391 31.3856 6.72168 31.2657 7.23667 31.2644C7.52261 31.2637 7.80735 31.3012 8.08334 31.3759C8.72556 31.543 9.30393 31.8966 9.74557 32.3919C10.1872 32.8872 10.4724 33.5021 10.5651 34.1593C10.6578 34.8164 10.5539 35.4862 10.2665 36.0844C9.97919 36.6825 9.5212 37.1823 8.95029 37.5206H8.93508Z" fill="#043DDB"/>
<path d="M41.7577 13.9558C41.1453 12.9305 40.169 12.1734 39.0235 11.8355C37.878 11.4976 36.6472 11.6035 35.5763 12.1323C34.5053 12.661 33.6729 13.5737 33.2447 14.6887C32.8165 15.8036 32.824 17.039 33.2657 18.1486L31.1971 19.3705C31.0385 19.4646 30.9237 19.6179 30.8781 19.7966C30.8324 19.9754 30.8597 20.1649 30.9538 20.3236C31.0479 20.4823 31.2012 20.5971 31.38 20.6427C31.5587 20.6883 31.7483 20.6611 31.9069 20.567L33.9754 19.3451C34.6124 20.142 35.4916 20.7098 36.48 20.9624C36.8692 21.0628 37.2694 21.1139 37.6714 21.1145C38.5087 21.1125 39.3306 20.8895 40.054 20.468C40.7775 20.0464 41.3768 19.4414 41.7915 18.714C42.2061 17.9866 42.4213 17.1626 42.4154 16.3253C42.4095 15.488 42.1826 14.6672 41.7577 13.9457V13.9558ZM40.9161 17.2107C40.7571 17.8155 40.4321 18.3638 39.9778 18.7936C39.5235 19.2233 38.9579 19.5173 38.3452 19.6424C37.7325 19.7675 37.097 19.7186 36.5105 19.5013C35.9241 19.284 35.4102 18.907 35.027 18.4128C34.6437 17.9187 34.4063 17.3271 34.3417 16.7051C34.2771 16.0831 34.3879 15.4554 34.6614 14.893C34.935 14.3306 35.3604 13.856 35.8897 13.5229C36.4189 13.1897 37.0308 13.0113 37.6562 13.0078C37.9421 13.0071 38.2268 13.0446 38.5028 13.1193C39.365 13.3424 40.1035 13.8986 40.5559 14.6657C41.0084 15.4328 41.1379 16.3482 40.9161 17.2107Z" fill="#043DDB"/>
<path d="M28.4646 94.3717H27.0755C27.0755 93.1441 26.5878 91.9667 25.7197 91.0986C24.8516 90.2306 23.6743 89.7429 22.4467 89.7429C21.219 89.7429 20.0417 90.2306 19.1736 91.0986C18.3055 91.9667 17.8179 93.1441 17.8179 94.3717H16.4287C16.4287 92.7756 17.0627 91.245 18.1913 90.1164C19.3199 88.9878 20.8506 88.3538 22.4467 88.3538C24.0427 88.3538 25.5734 88.9878 26.702 90.1164C27.8306 91.245 28.4646 92.7756 28.4646 94.3717Z" fill="white"/>
<path d="M28.2725 83.4719H28.7187C28.7187 81.8086 28.0579 80.2134 26.8818 79.0373C25.7057 77.8612 24.1105 77.2004 22.4472 77.2004C20.7839 77.2004 19.1888 77.8612 18.0126 79.0373C16.8365 80.2134 16.1758 81.8086 16.1758 83.4719H17.5649C17.5691 82.2624 18.022 81.0975 18.836 80.203C19.65 79.3084 20.767 78.7478 21.9707 78.6297C23.1744 78.5117 24.3791 78.8446 25.3513 79.5641C26.3236 80.2835 26.9942 81.3382 27.2332 82.5238C27.2004 82.5621 27.1731 82.6047 27.1521 82.6506C27.0838 82.7732 27.0058 82.8902 26.9189 83.0004C26.8008 81.9017 26.2829 80.8848 25.4636 80.1433C24.6444 79.4018 23.581 78.9875 22.4761 78.9793C21.3711 78.9711 20.3017 79.3695 19.4715 80.0987C18.6413 80.8279 18.1083 81.837 17.9739 82.9338C17.8395 84.0306 18.1132 85.1385 18.7429 86.0466C19.3725 86.9546 20.3141 87.5994 21.3884 87.8581C22.4627 88.1169 23.5946 87.9715 24.5686 87.4496C25.5426 86.9278 26.2907 86.066 26.6704 85.0283C27.3275 84.6534 27.8787 84.1179 28.2725 83.4719ZM22.4472 86.5797C21.8325 86.5797 21.2317 86.3974 20.7206 86.0559C20.2095 85.7145 19.8112 85.2291 19.576 84.6612C19.3407 84.0933 19.2792 83.4684 19.3991 82.8656C19.519 82.2627 19.815 81.7089 20.2496 81.2743C20.6843 80.8397 21.238 80.5437 21.8409 80.4238C22.4438 80.3038 23.0687 80.3654 23.6365 80.6006C24.2044 80.8358 24.6898 81.2342 25.0313 81.7453C25.3728 82.2563 25.5551 82.8572 25.5551 83.4719C25.5512 83.6678 25.5292 83.863 25.4891 84.0549C24.5865 84.4583 23.6241 84.7117 22.6399 84.8053C22.4557 84.812 22.2817 84.8916 22.1562 85.0266C22.0307 85.1616 21.9639 85.341 21.9707 85.5252C21.9774 85.7094 22.057 85.8834 22.192 86.0089C22.327 86.1344 22.5064 86.2011 22.6906 86.1944H22.7413C23.2835 86.1439 23.8209 86.0507 24.3484 85.9156C23.8071 86.3439 23.1375 86.5778 22.4472 86.5797Z" fill="white"/>
<path d="M23.2673 98.5503V96.1472C23.2673 95.963 23.1941 95.7863 23.0639 95.6561C22.9336 95.5258 22.757 95.4526 22.5727 95.4526C22.3885 95.4526 22.2119 95.5258 22.0816 95.6561C21.9514 95.7863 21.8782 95.963 21.8782 96.1472V98.5503C20.6914 98.7257 19.615 99.3436 18.865 100.28C18.1151 101.216 17.7471 102.402 17.8351 103.598C17.923 104.794 18.4603 105.913 19.3391 106.73C20.2179 107.546 21.3731 108 22.5727 108C23.7724 108 24.9276 107.546 25.8064 106.73C26.6852 105.913 27.2225 104.794 27.3104 103.598C27.3984 102.402 27.0304 101.216 26.2805 100.28C25.5305 99.3436 24.4541 98.7257 23.2673 98.5503ZM22.5727 106.606C21.9079 106.606 21.2581 106.409 20.7053 106.04C20.1525 105.671 19.7217 105.146 19.4673 104.531C19.2129 103.917 19.1463 103.241 19.276 102.589C19.4057 101.937 19.7258 101.338 20.1959 100.868C20.666 100.398 21.265 100.078 21.917 99.9483C22.569 99.8186 23.2449 99.8852 23.8591 100.14C24.4733 100.394 24.9982 100.825 25.3676 101.378C25.7369 101.93 25.9341 102.58 25.9341 103.245C25.9327 104.136 25.5782 104.99 24.9481 105.62C24.318 106.25 23.4638 106.605 22.5727 106.606Z" fill="white"/>
<path d="M27.0703 67.7552C27.0712 66.8451 26.8106 65.9539 26.3197 65.1876C25.8287 64.4213 25.1279 63.8122 24.3007 63.4327C23.4735 63.0532 22.5547 62.9193 21.6536 63.0469C20.7525 63.1746 19.907 63.5584 19.2178 64.1526C18.5285 64.7469 18.0245 65.5267 17.7656 66.3992C17.5067 67.2717 17.5039 68.2002 17.7575 69.0742C18.0111 69.9483 18.5104 70.7311 19.1961 71.3295C19.8818 71.928 20.7249 72.3168 21.6252 72.4499V74.853C21.6252 75.0372 21.6984 75.2139 21.8287 75.3442C21.9589 75.4744 22.1356 75.5476 22.3198 75.5476C22.504 75.5476 22.6807 75.4744 22.8109 75.3442C22.9412 75.2139 23.0144 75.0372 23.0144 74.853V72.4499C24.1404 72.2824 25.1691 71.7165 25.9133 70.855C26.6576 69.9935 27.0681 68.8936 27.0703 67.7552ZM22.3198 71.1165C21.655 71.1165 21.0051 70.9194 20.4524 70.55C19.8996 70.1807 19.4688 69.6557 19.2143 69.0415C18.9599 68.4273 18.8934 67.7515 19.0231 67.0994C19.1528 66.4474 19.4729 65.8485 19.943 65.3784C20.4131 64.9083 21.012 64.5882 21.664 64.4585C22.3161 64.3288 22.9919 64.3953 23.6061 64.6497C24.2203 64.9041 24.7453 65.335 25.1147 65.8877C25.484 66.4405 25.6811 67.0904 25.6811 67.7552C25.6798 68.6463 25.3252 69.5004 24.6951 70.1305C24.0651 70.7606 23.2109 71.1152 22.3198 71.1165Z" fill="white"/>
<path d="M13.3213 80.0144L11.197 78.8889C11.5269 77.9422 11.5474 76.9151 11.2557 75.956C10.9639 74.9968 10.375 74.1552 9.57382 73.5525C8.77265 72.9498 7.80072 72.6172 6.79827 72.6028C5.79583 72.5884 4.81472 72.8928 3.99654 73.4722C3.17837 74.0516 2.56544 74.8759 2.24621 75.8263C1.92698 76.7767 1.91796 77.8039 2.22045 78.7597C2.52295 79.7155 3.12131 80.5505 3.92919 81.1442C4.73707 81.7379 5.71268 82.0595 6.71522 82.0627C7.19135 82.0622 7.66472 81.9905 8.11958 81.8497C9.09304 81.5506 9.94333 80.944 10.543 80.1209L12.6673 81.2464C12.7681 81.297 12.8789 81.3247 12.9917 81.3275C13.1465 81.326 13.2964 81.2733 13.4179 81.1775C13.5395 81.0817 13.6258 80.9483 13.6635 80.7982C13.7012 80.6481 13.688 80.4898 13.6261 80.3479C13.5642 80.2061 13.457 80.0888 13.3213 80.0144ZM7.70892 80.5214C7.28681 80.6522 6.84307 80.6987 6.40302 80.658C5.96298 80.6173 5.53526 80.4904 5.14427 80.2844C4.75329 80.0784 4.4067 79.7975 4.1243 79.4576C3.8419 79.1177 3.62921 78.7255 3.49838 78.3033C3.36756 77.8812 3.32115 77.4375 3.36182 76.9975C3.40248 76.5574 3.52942 76.1297 3.73539 75.7387C3.94136 75.3477 4.22232 75.0011 4.56223 74.7187C4.90214 74.4363 5.29435 74.2236 5.71646 74.0928C6.13771 73.9609 6.58099 73.914 7.02052 73.9549C7.46005 73.9958 7.88706 74.1237 8.27674 74.3311C8.66998 74.537 9.01847 74.8188 9.30205 75.1603C9.58562 75.5018 9.79865 75.8961 9.92879 76.3205C10.0589 76.7448 10.1036 77.1908 10.0602 77.6326C10.0168 78.0743 9.88624 78.5031 9.67603 78.894C9.46909 79.2825 9.18744 79.6262 8.84725 79.9055C8.50706 80.1848 8.11504 80.3941 7.69371 80.5214H7.70892Z" fill="white"/>
<path d="M42.7275 92.2939C42.4696 91.4521 41.9827 90.6987 41.3211 90.1179C40.6596 89.537 39.8495 89.1517 38.9814 89.0049C38.1134 88.8581 37.2216 88.9557 36.4058 89.2867C35.5901 89.6178 34.8825 90.1692 34.3622 90.8794L32.2379 89.7539C32.157 89.7103 32.0683 89.683 31.9769 89.6737C31.8855 89.6644 31.7931 89.6731 31.7051 89.6995C31.6171 89.7259 31.5351 89.7693 31.4638 89.8274C31.3926 89.8854 31.3335 89.9569 31.2899 90.0378C31.2463 90.1187 31.219 90.2074 31.2097 90.2988C31.2003 90.3902 31.2091 90.4826 31.2355 90.5706C31.2618 90.6587 31.3053 90.7407 31.3633 90.8119C31.4214 90.8832 31.4929 90.9423 31.5738 90.9859L33.6981 92.1114C33.4472 92.826 33.3711 93.5902 33.476 94.3403C33.5808 95.0903 33.8637 95.8043 34.3009 96.4227C34.7382 97.0411 35.3171 97.5458 35.9892 97.8948C36.6614 98.2437 37.4073 98.4267 38.1646 98.4285C38.9081 98.4303 39.6416 98.2578 40.3063 97.9248C40.971 97.5918 41.5484 97.1076 41.9921 96.5111C42.4358 95.9146 42.7334 95.2223 42.8611 94.4899C42.9889 93.7575 42.9431 93.0054 42.7275 92.2939ZM41.1558 95.2649C40.9489 95.6571 40.6666 96.0046 40.325 96.2875C39.9834 96.5703 39.5892 96.7828 39.1652 96.9128C38.7412 97.0429 38.2957 97.0878 37.8543 97.0451C37.4128 97.0025 36.9842 96.873 36.593 96.6641C36.1997 96.4583 35.8512 96.1764 35.5676 95.8349C35.2841 95.4935 35.0711 95.0991 34.9409 94.6748C34.8108 94.2504 34.7661 93.8044 34.8095 93.3627C34.8529 92.9209 34.9835 92.4922 35.1937 92.1012C35.6171 91.3253 36.3291 90.7473 37.1756 90.4925C38.022 90.2377 38.9348 90.3266 39.7162 90.74C40.4975 91.1534 41.0846 91.8579 41.3503 92.701C41.616 93.5441 41.5388 94.4579 41.1356 95.2446L41.1558 95.2649Z" fill="white"/>
<path d="M13.9391 90.6661C13.8925 90.5874 13.831 90.5187 13.7579 90.4639C13.6847 90.4091 13.6015 90.3692 13.513 90.3466C13.4244 90.324 13.3323 90.3191 13.2419 90.3322C13.1514 90.3452 13.0644 90.376 12.9859 90.4228L10.9174 91.6446C10.1612 90.7185 9.0835 90.1115 7.89948 89.945C6.71546 89.7785 5.51219 90.0645 4.52981 90.7461C3.54743 91.4277 2.8582 92.4547 2.59968 93.6221C2.34116 94.7895 2.53237 96.0114 3.13514 97.044C3.74759 98.0694 4.72379 98.8264 5.86933 99.1644C7.01486 99.5023 8.24566 99.3964 9.31658 98.8676C10.3875 98.3389 11.22 97.4261 11.6482 96.3112C12.0764 95.1962 12.0689 93.9609 11.6272 92.8512L13.6957 91.6294C13.7757 91.5829 13.8457 91.5208 13.9014 91.4469C13.9571 91.373 13.9975 91.2887 14.0201 91.199C14.0428 91.1092 14.0473 91.0159 14.0334 90.9244C14.0195 90.8328 13.9874 90.745 13.9391 90.6661ZM8.93508 97.5206C8.4901 97.7798 7.99143 97.9332 7.47767 97.9688C6.96391 98.0044 6.44885 97.9214 5.97235 97.726C5.49585 97.5306 5.0707 97.2282 4.72981 96.8422C4.38892 96.4562 4.14143 95.9969 4.00651 95.4999C3.87158 95.0029 3.85284 94.4815 3.95173 93.9761C4.05062 93.4707 4.2645 92.9948 4.57679 92.5853C4.88909 92.1758 5.29143 91.8437 5.75267 91.6146C6.21391 91.3856 6.72168 91.2657 7.23667 91.2644C7.52261 91.2637 7.80735 91.3012 8.08334 91.3759C8.72556 91.543 9.30393 91.8966 9.74557 92.3919C10.1872 92.8872 10.4724 93.5021 10.5651 94.1593C10.6578 94.8164 10.5539 95.4862 10.2665 96.0844C9.97919 96.6825 9.5212 97.1823 8.95029 97.5206H8.93508Z" fill="white"/>
<path d="M41.7577 73.9558C41.1453 72.9305 40.169 72.1734 39.0235 71.8355C37.878 71.4976 36.6472 71.6035 35.5763 72.1323C34.5053 72.661 33.6729 73.5737 33.2447 74.6887C32.8165 75.8036 32.824 77.039 33.2657 78.1486L31.1971 79.3705C31.0385 79.4646 30.9237 79.6179 30.8781 79.7966C30.8324 79.9754 30.8597 80.1649 30.9538 80.3236C31.0479 80.4823 31.2012 80.5971 31.38 80.6427C31.5587 80.6883 31.7483 80.6611 31.9069 80.567L33.9754 79.3451C34.6124 80.142 35.4916 80.7098 36.48 80.9624C36.8692 81.0628 37.2694 81.1139 37.6714 81.1145C38.5087 81.1125 39.3306 80.8895 40.054 80.468C40.7775 80.0464 41.3768 79.4414 41.7915 78.714C42.2061 77.9866 42.4213 77.1626 42.4154 76.3253C42.4095 75.488 42.1826 74.6672 41.7577 73.9457V73.9558ZM40.9161 77.2107C40.7571 77.8155 40.4321 78.3638 39.9778 78.7936C39.5235 79.2233 38.9579 79.5173 38.3452 79.6424C37.7325 79.7675 37.097 79.7186 36.5105 79.5013C35.9241 79.284 35.4102 78.907 35.027 78.4128C34.6437 77.9187 34.4063 77.3271 34.3417 76.7051C34.2771 76.0831 34.3879 75.4554 34.6614 74.893C34.935 74.3306 35.3604 73.856 35.8897 73.5229C36.4189 73.1897 37.0308 73.0113 37.6562 73.0078C37.9421 73.0071 38.2268 73.0446 38.5028 73.1193C39.365 73.3424 40.1035 73.8986 40.5559 74.6657C41.0084 75.4328 41.1379 76.3482 40.9161 77.2107Z" fill="white"/>
</svg>
