<svg width="45" height="111" viewBox="0 0 45 111" fill="none" xmlns="http://www.w3.org/2000/svg">
<path d="M6.80582 35.6631C7.06764 35.8859 7.27656 36.1643 7.41743 36.478C7.55829 36.7917 7.62757 37.1327 7.62023 37.4765V40.9567C7.6273 42.0345 8.06159 43.0655 8.82781 43.8236C9.59404 44.5817 10.6297 45.0049 11.7075 45.0004H12.9684C14.0463 45.0049 15.0819 44.5817 15.8481 43.8236C16.6144 43.0655 17.0486 42.0345 17.0557 40.9567V37.4765C17.054 37.1232 17.1305 36.7739 17.2795 36.4536C17.4286 36.1333 17.6466 35.8499 17.918 35.6237C18.8756 34.8327 19.6509 33.844 20.1908 32.7254C20.7307 31.6069 21.0225 30.3848 21.0461 29.1429C21.0697 27.9011 20.8247 26.6688 20.3277 25.5305C19.8307 24.3922 19.0936 23.3748 18.1668 22.5479C17.2461 21.728 16.1631 21.1111 14.9884 20.7371C13.8136 20.3632 12.5733 20.2407 11.3481 20.3775C9.65331 20.5593 8.0501 21.2384 6.74025 22.3291C5.4304 23.4199 4.47243 24.8738 3.98689 26.5077C3.50134 28.1416 3.5099 29.8827 4.0115 31.5118C4.51309 33.1409 5.48531 34.5852 6.80582 35.6631ZM12.9684 43.5488H11.7075C11.0301 43.5489 10.3784 43.2891 9.88682 42.823H14.7891C14.2976 43.2891 13.6459 43.5489 12.9684 43.5488ZM15.6041 40.9567C15.6013 41.0959 15.5871 41.2345 15.5615 41.3713H9.11446C9.08885 41.2345 9.0746 41.0959 9.07184 40.9567V40.6455H15.6041V40.9567ZM5.1157 28.2572C5.28653 26.6161 6.01363 25.0827 7.17624 23.9119C8.33885 22.741 9.86701 22.0031 11.5069 21.8206C11.7864 21.7897 12.0674 21.7742 12.3486 21.7742C13.8333 21.7629 15.2851 22.2114 16.5048 23.058C17.7245 23.9047 18.6523 25.108 19.1609 26.5029C19.6695 27.8979 19.734 29.416 19.3454 30.849C18.9569 32.282 18.1344 33.5597 16.9909 34.5066C16.5551 34.8689 16.2049 35.323 15.9651 35.8364C15.7254 36.3498 15.6021 36.9099 15.6041 37.4765V39.1939H9.07184V37.4765C9.07967 36.9177 8.96287 36.3641 8.72991 35.8561C8.49695 35.3481 8.15371 34.8983 7.72513 34.5396C6.80554 33.7891 6.086 32.8226 5.63069 31.7264C5.17538 30.6302 4.99846 29.4384 5.1157 28.2572Z" fill="#043DDB"/>
<path d="M11.613 34.0761V34.8385H13.0646V34.0761C13.6999 33.9856 14.2773 33.6576 14.6802 33.1581C15.0831 32.6586 15.2816 32.0249 15.2355 31.3848C15.1895 30.7448 14.9023 30.146 14.4321 29.7093C13.9618 29.2727 13.3434 29.0306 12.7017 29.0321H11.9759C11.6871 29.0321 11.4102 28.9174 11.2061 28.7132C11.0019 28.509 10.8872 28.2321 10.8872 27.9434C10.8872 27.6546 11.0019 27.3777 11.2061 27.1735C11.4102 26.9694 11.6871 26.8547 11.9759 26.8547H12.7017C12.9903 26.855 13.2671 26.9698 13.4712 27.1739C13.6753 27.378 13.7901 27.6547 13.7904 27.9434V28.3063H15.242V27.9434C15.2402 27.3341 15.0192 26.7459 14.6194 26.2862C14.2196 25.8265 13.6677 25.526 13.0646 25.4397V24.6772H11.613V25.4397C10.9777 25.5302 10.4003 25.8582 9.99739 26.3577C9.59448 26.8572 9.39603 27.4909 9.44209 28.131C9.48814 28.771 9.77526 29.3698 10.2455 29.8065C10.7158 30.2431 11.3342 30.4851 11.9759 30.4837H12.7017C12.9904 30.4837 13.2674 30.5984 13.4715 30.8026C13.6757 31.0067 13.7904 31.2837 13.7904 31.5724C13.7904 31.8612 13.6757 32.1381 13.4715 32.3422C13.2674 32.5464 12.9904 32.6611 12.7017 32.6611H11.9759C11.6872 32.6608 11.4105 32.546 11.2064 32.3419C11.0023 32.1378 10.8875 31.8611 10.8872 31.5724V31.2095H9.43557V31.5724C9.43737 32.1816 9.65837 32.7699 10.0582 33.2296C10.458 33.6893 11.0099 33.9898 11.613 34.0761Z" fill="#043DDB"/>
<path d="M35.565 7.98413C34.919 7.98413 34.2875 8.17569 33.7504 8.53457C33.2133 8.89346 32.7947 9.40356 32.5474 10.0004C32.3002 10.5972 32.2356 11.2539 32.3616 11.8875C32.4876 12.521 32.7987 13.103 33.2555 13.5598C33.7122 14.0165 34.2942 14.3276 34.9278 14.4536C35.5613 14.5797 36.218 14.515 36.8149 14.2678C37.4117 14.0206 37.9218 13.6019 38.2806 13.0648C38.6395 12.5277 38.8311 11.8962 38.8311 11.2503C38.8301 10.3843 38.4857 9.55411 37.8734 8.9418C37.2611 8.32949 36.4309 7.98507 35.565 7.98413ZM35.565 13.0648C35.2061 13.0648 34.8553 12.9584 34.5569 12.759C34.2585 12.5596 34.0259 12.2762 33.8886 11.9446C33.7512 11.6131 33.7153 11.2482 33.7853 10.8963C33.8553 10.5443 34.0281 10.221 34.2819 9.9672C34.5357 9.71344 34.859 9.54062 35.211 9.47061C35.5629 9.4006 35.9278 9.43653 36.2593 9.57387C36.5909 9.7112 36.8743 9.94377 37.0737 10.2422C37.2731 10.5406 37.3795 10.8914 37.3795 11.2503C37.3789 11.7313 37.1876 12.1925 36.8474 12.5327C36.5072 12.8729 36.046 13.0642 35.565 13.0648Z" fill="#043DDB"/>
<path d="M42.0601 11.2758C41.7403 6.34065 39.2791 0 35.5644 0C31.8497 0 29.3884 6.34065 29.0687 11.2758L26.3416 14.003C26.2055 14.1391 26.129 14.3237 26.1289 14.5161V20.3226C26.1289 20.4593 26.1675 20.5932 26.2402 20.709C26.313 20.8247 26.417 20.9176 26.5402 20.9768C26.6634 21.036 26.8009 21.0592 26.9367 21.0437C27.0726 21.0282 27.2013 20.9747 27.308 20.8893L30.367 18.4421C30.6461 19.0047 30.9783 19.5393 31.3591 20.0387C31.4269 20.127 31.5141 20.1985 31.614 20.2478C31.7138 20.297 31.8237 20.3226 31.935 20.3226H39.2746C39.388 20.3226 39.4999 20.296 39.6012 20.2449C39.7025 20.1938 39.7905 20.1197 39.8579 20.0284C40.1876 19.5755 40.4772 19.0947 40.7234 18.5915L43.8417 20.9056C43.9497 20.9856 44.0778 21.0341 44.2118 21.0457C44.3457 21.0572 44.4803 21.0313 44.6004 20.9708C44.7205 20.9104 44.8214 20.8178 44.8919 20.7033C44.9625 20.5888 44.9999 20.457 44.9999 20.3226V14.5161C44.9998 14.3237 44.9233 14.1391 44.7872 14.003L42.0601 11.2758ZM27.5805 18.8125V14.8167L29.0663 13.3308C29.1396 14.5954 29.3838 15.8442 29.7922 17.0433L27.5805 18.8125ZM35.5644 1.45161C36.5978 1.45161 37.6537 2.43981 38.5351 3.9677C36.5744 4.36286 34.5545 4.36286 32.5937 3.9677C33.4751 2.43981 34.531 1.45161 35.5644 1.45161ZM38.8979 18.871H32.3029C31.0513 16.927 30.4171 14.6498 30.4837 12.3387C30.498 9.91983 30.9898 7.52758 31.931 5.29927C33.1212 5.58351 34.3407 5.72697 35.5644 5.72672C36.7881 5.72697 38.0076 5.58351 39.1978 5.29927C40.1389 7.52758 40.6308 9.91983 40.645 12.3387C40.7016 14.6387 40.0951 16.9063 38.8979 18.871ZM43.5483 18.8802L41.2988 17.2108C41.728 15.9582 41.985 14.653 42.0626 13.3311L43.5483 14.8167V18.8802Z" fill="#043DDB"/>
<path d="M33.3872 21.0486H31.9355V25.4034H33.3872V21.0486Z" fill="#043DDB"/>
<path d="M36.2905 22.5H34.8389V26.8548H36.2905V22.5Z" fill="#043DDB"/>
<path d="M39.1928 21.0486H37.7412V25.4034H39.1928V21.0486Z" fill="#043DDB"/>
<path d="M20.8359 39.7065L26.183 34.3594L29.3049 36.8568C29.4507 36.9739 29.6362 37.03 29.8224 37.0135C30.0087 36.997 30.1814 36.9091 30.3043 36.7682L35.385 30.9618L34.2927 30.0056L29.6693 35.2897L26.5825 32.8202C26.443 32.7086 26.2673 32.6524 26.089 32.6623C25.9107 32.6722 25.7423 32.7475 25.616 32.8738L19.8096 38.6802L20.8359 39.7065Z" fill="#043DDB"/>
<path d="M13.0649 16.6929H11.6133V18.8703H13.0649V16.6929Z" fill="#043DDB"/>
<path d="M24.6774 28.3071H22.5V29.7587H24.6774V28.3071Z" fill="#043DDB"/>
<path d="M21.2612 19.8091L19.7217 21.3486L20.748 22.375L22.2875 20.8355L21.2612 19.8091Z" fill="#043DDB"/>
<path d="M3.41696 19.8101L2.39062 20.8364L3.93013 22.3759L4.95647 21.3496L3.41696 19.8101Z" fill="#043DDB"/>
<path d="M2.17742 28.3071H0V29.7587H2.17742V28.3071Z" fill="#043DDB"/>
<path d="M6.80582 101.663C7.06764 101.886 7.27656 102.164 7.41743 102.478C7.55829 102.792 7.62757 103.133 7.62023 103.477V106.957C7.6273 108.035 8.06159 109.066 8.82781 109.824C9.59404 110.582 10.6297 111.005 11.7075 111H12.9684C14.0463 111.005 15.0819 110.582 15.8481 109.824C16.6144 109.066 17.0486 108.035 17.0557 106.957V103.477C17.054 103.123 17.1305 102.774 17.2795 102.454C17.4286 102.133 17.6466 101.85 17.918 101.624C18.8756 100.833 19.6509 99.844 20.1908 98.7254C20.7307 97.6069 21.0225 96.3848 21.0461 95.1429C21.0697 93.9011 20.8247 92.6688 20.3277 91.5305C19.8307 90.3922 19.0936 89.3748 18.1668 88.5479C17.2461 87.728 16.1631 87.1111 14.9884 86.7371C13.8136 86.3632 12.5733 86.2407 11.3481 86.3775C9.65331 86.5593 8.0501 87.2384 6.74025 88.3291C5.4304 89.4199 4.47243 90.8738 3.98689 92.5077C3.50134 94.1416 3.5099 95.8827 4.0115 97.5118C4.51309 99.1409 5.48531 100.585 6.80582 101.663ZM12.9684 109.549H11.7075C11.0301 109.549 10.3784 109.289 9.88682 108.823H14.7891C14.2976 109.289 13.6459 109.549 12.9684 109.549ZM15.6041 106.957C15.6013 107.096 15.5871 107.235 15.5615 107.371H9.11446C9.08885 107.235 9.0746 107.096 9.07184 106.957V106.646H15.6041V106.957ZM5.1157 94.2572C5.28653 92.6161 6.01363 91.0827 7.17624 89.9119C8.33885 88.741 9.86701 88.0031 11.5069 87.8206C11.7864 87.7897 12.0674 87.7742 12.3486 87.7742C13.8333 87.7629 15.2851 88.2114 16.5048 89.058C17.7245 89.9047 18.6523 91.108 19.1609 92.5029C19.6695 93.8979 19.734 95.416 19.3454 96.849C18.9569 98.282 18.1344 99.5597 16.9909 100.507C16.5551 100.869 16.2049 101.323 15.9651 101.836C15.7254 102.35 15.6021 102.91 15.6041 103.477V105.194H9.07184V103.477C9.07967 102.918 8.96287 102.364 8.72991 101.856C8.49695 101.348 8.15371 100.898 7.72513 100.54C6.80554 99.7891 6.086 98.8226 5.63069 97.7264C5.17538 96.6302 4.99846 95.4384 5.1157 94.2572Z" fill="white"/>
<path d="M11.613 100.076V100.839H13.0646V100.076C13.6999 99.9856 14.2773 99.6576 14.6802 99.1581C15.0831 98.6586 15.2816 98.0249 15.2355 97.3848C15.1895 96.7448 14.9023 96.146 14.4321 95.7093C13.9618 95.2727 13.3434 95.0306 12.7017 95.0321H11.9759C11.6871 95.0321 11.4102 94.9174 11.2061 94.7132C11.0019 94.509 10.8872 94.2321 10.8872 93.9434C10.8872 93.6546 11.0019 93.3777 11.2061 93.1735C11.4102 92.9694 11.6871 92.8547 11.9759 92.8547H12.7017C12.9903 92.855 13.2671 92.9698 13.4712 93.1739C13.6753 93.378 13.7901 93.6547 13.7904 93.9434V94.3063H15.242V93.9434C15.2402 93.3341 15.0192 92.7459 14.6194 92.2862C14.2196 91.8265 13.6677 91.526 13.0646 91.4397V90.6772H11.613V91.4397C10.9777 91.5302 10.4003 91.8582 9.99739 92.3577C9.59448 92.8572 9.39603 93.4909 9.44209 94.131C9.48814 94.771 9.77526 95.3698 10.2455 95.8065C10.7158 96.2431 11.3342 96.4851 11.9759 96.4837H12.7017C12.9904 96.4837 13.2674 96.5984 13.4715 96.8026C13.6757 97.0067 13.7904 97.2837 13.7904 97.5724C13.7904 97.8612 13.6757 98.1381 13.4715 98.3422C13.2674 98.5464 12.9904 98.6611 12.7017 98.6611H11.9759C11.6872 98.6608 11.4105 98.546 11.2064 98.3419C11.0023 98.1378 10.8875 97.8611 10.8872 97.5724V97.2095H9.43557V97.5724C9.43737 98.1816 9.65837 98.7699 10.0582 99.2296C10.458 99.6893 11.0099 99.9898 11.613 100.076Z" fill="white"/>
<path d="M35.565 73.9841C34.919 73.9841 34.2875 74.1757 33.7504 74.5346C33.2133 74.8935 32.7947 75.4036 32.5474 76.0004C32.3002 76.5972 32.2356 77.2539 32.3616 77.8875C32.4876 78.521 32.7987 79.103 33.2555 79.5598C33.7122 80.0165 34.2942 80.3276 34.9278 80.4536C35.5613 80.5797 36.218 80.515 36.8149 80.2678C37.4117 80.0206 37.9218 79.6019 38.2806 79.0648C38.6395 78.5277 38.8311 77.8962 38.8311 77.2503C38.8301 76.3843 38.4857 75.5541 37.8734 74.9418C37.2611 74.3295 36.4309 73.9851 35.565 73.9841ZM35.565 79.0648C35.2061 79.0648 34.8553 78.9584 34.5569 78.759C34.2585 78.5596 34.0259 78.2762 33.8886 77.9446C33.7512 77.6131 33.7153 77.2482 33.7853 76.8963C33.8553 76.5443 34.0281 76.221 34.2819 75.9672C34.5357 75.7134 34.859 75.5406 35.211 75.4706C35.5629 75.4006 35.9278 75.4365 36.2593 75.5739C36.5909 75.7112 36.8743 75.9438 37.0737 76.2422C37.2731 76.5406 37.3795 76.8914 37.3795 77.2503C37.3789 77.7313 37.1876 78.1925 36.8474 78.5327C36.5072 78.8729 36.046 79.0642 35.565 79.0648Z" fill="white"/>
<path d="M42.0601 77.2758C41.7403 72.3406 39.2791 66 35.5644 66C31.8497 66 29.3884 72.3406 29.0687 77.2758L26.3416 80.003C26.2055 80.1391 26.129 80.3237 26.1289 80.5161V86.3226C26.1289 86.4593 26.1675 86.5932 26.2402 86.709C26.313 86.8247 26.417 86.9176 26.5402 86.9768C26.6634 87.036 26.8009 87.0592 26.9367 87.0437C27.0726 87.0282 27.2013 86.9747 27.308 86.8893L30.367 84.4421C30.6461 85.0047 30.9783 85.5393 31.3591 86.0387C31.4269 86.127 31.5141 86.1985 31.614 86.2478C31.7138 86.297 31.8237 86.3226 31.935 86.3226H39.2746C39.388 86.3226 39.4999 86.296 39.6012 86.2449C39.7025 86.1938 39.7905 86.1197 39.8579 86.0284C40.1876 85.5755 40.4772 85.0947 40.7234 84.5915L43.8417 86.9056C43.9497 86.9856 44.0778 87.0341 44.2118 87.0457C44.3457 87.0572 44.4803 87.0313 44.6004 86.9708C44.7205 86.9104 44.8214 86.8178 44.8919 86.7033C44.9625 86.5888 44.9999 86.457 44.9999 86.3226V80.5161C44.9998 80.3237 44.9233 80.1391 44.7872 80.003L42.0601 77.2758ZM27.5805 84.8125V80.8167L29.0663 79.3308C29.1396 80.5954 29.3838 81.8442 29.7922 83.0433L27.5805 84.8125ZM35.5644 67.4516C36.5978 67.4516 37.6537 68.4398 38.5351 69.9677C36.5744 70.3629 34.5545 70.3629 32.5937 69.9677C33.4751 68.4398 34.531 67.4516 35.5644 67.4516ZM38.8979 84.871H32.3029C31.0513 82.927 30.4171 80.6498 30.4837 78.3387C30.498 75.9198 30.9898 73.5276 31.931 71.2993C33.1212 71.5835 34.3407 71.727 35.5644 71.7267C36.7881 71.727 38.0076 71.5835 39.1978 71.2993C40.1389 73.5276 40.6308 75.9198 40.645 78.3387C40.7016 80.6387 40.0951 82.9063 38.8979 84.871ZM43.5483 84.8802L41.2988 83.2108C41.728 81.9582 41.985 80.653 42.0626 79.3311L43.5483 80.8167V84.8802Z" fill="white"/>
<path d="M33.3872 87.0486H31.9355V91.4034H33.3872V87.0486Z" fill="white"/>
<path d="M36.2905 88.5H34.8389V92.8548H36.2905V88.5Z" fill="white"/>
<path d="M39.1928 87.0486H37.7412V91.4034H39.1928V87.0486Z" fill="white"/>
<path d="M20.8359 105.707L26.183 100.359L29.3049 102.857C29.4507 102.974 29.6362 103.03 29.8224 103.014C30.0087 102.997 30.1814 102.909 30.3043 102.768L35.385 96.9618L34.2927 96.0056L29.6693 101.29L26.5825 98.8202C26.443 98.7086 26.2673 98.6524 26.089 98.6623C25.9107 98.6722 25.7423 98.7475 25.616 98.8738L19.8096 104.68L20.8359 105.707Z" fill="white"/>
<path d="M13.0649 82.6929H11.6133V84.8703H13.0649V82.6929Z" fill="white"/>
<path d="M24.6774 94.3071H22.5V95.7587H24.6774V94.3071Z" fill="white"/>
<path d="M21.2612 85.8091L19.7217 87.3486L20.748 88.375L22.2875 86.8355L21.2612 85.8091Z" fill="white"/>
<path d="M3.41696 85.8101L2.39062 86.8364L3.93013 88.3759L4.95647 87.3496L3.41696 85.8101Z" fill="white"/>
<path d="M2.17742 94.3071H0V95.7587H2.17742V94.3071Z" fill="white"/>
</svg>
