<svg width="45" height="111" viewBox="0 0 45 111" fill="none" xmlns="http://www.w3.org/2000/svg">
<path d="M20.6795 31.862H33.9917C34.0722 31.8621 34.1519 31.8463 34.2263 31.8155C34.3007 31.7848 34.3682 31.7396 34.4252 31.6828C34.4821 31.6259 34.5273 31.5583 34.5581 31.484C34.5889 31.4096 34.6048 31.3299 34.6048 31.2494V12.6043C34.6046 12.4919 34.5737 12.3817 34.5152 12.2857C34.4568 12.1898 34.3731 12.1117 34.2733 12.0599L32.6097 11.2006V7.45963C32.6095 7.36607 32.5878 7.27382 32.5464 7.18994C32.5049 7.10606 32.4448 7.03279 32.3707 6.97574L27.375 3.12739C27.2679 3.0448 27.1365 3 27.0012 3C26.866 3 26.7345 3.0448 26.6274 3.12739L21.6318 6.9738C21.5577 7.03093 21.4977 7.10422 21.4563 7.18808C21.4148 7.27194 21.3931 7.36415 21.3928 7.45769V14.7823L20.3984 15.2962C20.2985 15.3477 20.2147 15.4258 20.1562 15.5218C20.0977 15.6178 20.0668 15.7281 20.0669 15.8405V31.2494C20.0669 31.4119 20.1314 31.5677 20.2463 31.6826C20.3612 31.7975 20.517 31.862 20.6795 31.862ZM33.3791 30.6363H27.1621V9.76486L33.3791 12.9779V30.6363ZM22.6184 7.76109L26.9995 4.38646L31.3821 7.76109V10.5676L26.8287 8.214C26.7353 8.16577 26.6311 8.14237 26.5261 8.14606C26.421 8.14976 26.3187 8.18042 26.2289 8.23509C26.1392 8.28977 26.065 8.36663 26.0135 8.45827C25.962 8.54992 25.935 8.65326 25.935 8.75838V12.4359L22.617 14.1503L22.6184 7.76109ZM25.935 13.8135V30.6363H21.2897V27.7122L23.322 26.6617C23.4664 26.5871 23.5752 26.4581 23.6245 26.3033C23.6738 26.1484 23.6596 25.9803 23.585 25.8359C23.548 25.7644 23.4974 25.7009 23.4359 25.649C23.3744 25.5971 23.3033 25.5578 23.2266 25.5334C23.0717 25.4841 22.9036 25.4983 22.7592 25.5729L21.2892 26.3326V24.9903L22.5284 24.3497C22.6728 24.275 22.7816 24.1461 22.8309 23.9913C22.8803 23.8364 22.8661 23.6683 22.7914 23.5239C22.7168 23.3795 22.5879 23.2707 22.433 23.2214C22.2782 23.1721 22.1101 23.1863 21.9657 23.2609L21.2882 23.6103V22.0169L22.5275 21.3762C22.6718 21.3016 22.7807 21.1726 22.83 21.0178C22.8793 20.8629 22.8651 20.6948 22.7905 20.5504C22.7158 20.4061 22.5869 20.2972 22.4321 20.2479C22.2772 20.1986 22.1091 20.2128 21.9647 20.2875L21.2873 20.6373V20.3165L23.3196 19.266C23.4614 19.1899 23.5676 19.061 23.6152 18.9073C23.6629 18.7536 23.6482 18.5873 23.5743 18.4444C23.5005 18.3014 23.3733 18.1932 23.2204 18.1431C23.0674 18.0931 22.9009 18.1051 22.7568 18.1767L21.2868 18.9369V16.2136L25.935 13.8135ZM27.5884 15.2066C27.6007 15.0446 27.6768 14.894 27.8 14.788C27.9232 14.682 28.0835 14.6293 28.2456 14.6415L28.8451 14.6865C29.0038 14.6974 29.152 14.7696 29.2584 14.8879C29.3648 15.0061 29.4211 15.1612 29.4152 15.3201C29.4094 15.4791 29.3419 15.6296 29.2271 15.7397C29.1123 15.8498 28.9592 15.911 28.8001 15.9102C28.7846 15.9102 28.7685 15.9102 28.7517 15.9102L28.1522 15.8652C27.9904 15.8521 27.8404 15.7755 27.735 15.652C27.6296 15.5286 27.5775 15.3685 27.5899 15.2066H27.5884ZM29.464 15.3475C29.4766 15.1854 29.5529 15.035 29.6761 14.9291C29.7993 14.8232 29.9595 14.7704 30.1216 14.7823L30.7206 14.8273C30.8782 14.8398 31.0249 14.9127 31.13 15.0308C31.2351 15.1489 31.2906 15.303 31.2848 15.461C31.2789 15.6189 31.2123 15.7686 31.0988 15.8786C30.9853 15.9887 30.8337 16.0506 30.6756 16.0515C30.6601 16.0515 30.6447 16.0515 30.6272 16.0515L30.0277 16.0065C29.8661 15.9931 29.7165 15.9162 29.6115 15.7927C29.5065 15.6692 29.4546 15.5091 29.4674 15.3475H29.464ZM31.3395 15.4888C31.3518 15.3267 31.4279 15.1761 31.5511 15.0701C31.6743 14.9642 31.8346 14.9114 31.9966 14.9236L32.5962 14.9686C32.7538 14.9811 32.9004 15.054 33.0055 15.1721C33.1107 15.2902 33.1661 15.4443 33.1603 15.6023C33.1545 15.7602 33.0879 15.9099 32.9744 16.0199C32.8609 16.1299 32.7093 16.1919 32.5512 16.1928C32.5357 16.1928 32.5197 16.1928 32.5028 16.1928L31.9032 16.1478C31.7414 16.1347 31.5913 16.058 31.4859 15.9345C31.3805 15.8109 31.3284 15.6506 31.341 15.4888H31.3395ZM27.5899 17.8893C27.6021 17.7271 27.6783 17.5763 27.8016 17.4702C27.9249 17.364 28.0852 17.3112 28.2475 17.3232L28.847 17.3682C29.0046 17.3807 29.1513 17.4536 29.2565 17.5718C29.3616 17.6899 29.417 17.8441 29.4111 18.0021C29.4052 18.1601 29.3385 18.3097 29.2249 18.4197C29.1114 18.5297 28.9597 18.5916 28.8015 18.5924C28.7861 18.5924 28.7706 18.5924 28.7531 18.5924L28.1536 18.5474C27.9917 18.5347 27.8414 18.4582 27.7357 18.3349C27.63 18.2115 27.5776 18.0513 27.5899 17.8893ZM29.4654 18.0301C29.478 17.8681 29.5543 17.7177 29.6776 17.6118C29.8008 17.5059 29.961 17.4531 30.123 17.4649L30.7221 17.5104C30.8808 17.5213 31.029 17.5936 31.1354 17.7118C31.2418 17.8301 31.2981 17.9851 31.2922 18.1441C31.2864 18.3031 31.2189 18.4535 31.1041 18.5637C30.9893 18.6738 30.8362 18.7349 30.6771 18.7342H30.6287L30.0292 18.6887C29.8674 18.6756 29.7175 18.5989 29.6122 18.4755C29.5069 18.352 29.4548 18.1919 29.4674 18.0301H29.4654ZM31.341 18.1714C31.3533 18.0094 31.4295 17.8589 31.5527 17.753C31.6759 17.647 31.836 17.5942 31.9981 17.6062L32.5976 17.6512C32.7552 17.6638 32.9019 17.7367 33.007 17.8547C33.1121 17.9728 33.1676 18.1269 33.1617 18.2849C33.1559 18.4429 33.0893 18.5925 32.9758 18.7026C32.8623 18.8126 32.7107 18.8746 32.5526 18.8755C32.5371 18.8755 32.5212 18.8755 32.5042 18.8755L31.9047 18.8305C31.8244 18.8242 31.7461 18.8022 31.6743 18.7657C31.6025 18.7292 31.5386 18.6789 31.4863 18.6177C31.4339 18.5565 31.3942 18.4856 31.3692 18.409C31.3443 18.3325 31.3347 18.2517 31.341 18.1714ZM27.5899 20.572C27.6026 20.41 27.6789 20.2597 27.8021 20.1538C27.9253 20.0479 28.0855 19.995 28.2475 20.0068L28.847 20.0518C29.0046 20.0643 29.1513 20.1373 29.2565 20.2554C29.3616 20.3735 29.417 20.5277 29.4111 20.6857C29.4052 20.8437 29.3385 20.9934 29.2249 21.1034C29.1114 21.2134 28.9597 21.2752 28.8015 21.276C28.7861 21.276 28.7706 21.276 28.7531 21.276L28.1536 21.231C28.0733 21.2248 27.995 21.2028 27.9232 21.1663C27.8515 21.1298 27.7876 21.0795 27.7352 21.0183C27.6829 20.9571 27.6431 20.8862 27.6181 20.8096C27.5932 20.733 27.5836 20.6523 27.5899 20.572ZM29.4654 20.7133C29.4779 20.5512 29.5542 20.4007 29.6774 20.2948C29.8007 20.1888 29.9609 20.1361 30.123 20.1481L30.7221 20.1931C30.8797 20.2056 31.0263 20.2785 31.1315 20.3966C31.2366 20.5147 31.292 20.6688 31.2862 20.8268C31.2804 20.9848 31.2138 21.1344 31.1003 21.2444C30.9868 21.3545 30.8352 21.4164 30.6771 21.4173C30.6616 21.4173 30.6461 21.4173 30.6287 21.4173L30.0292 21.3723C29.8674 21.3591 29.7174 21.2823 29.6121 21.1588C29.5069 21.0353 29.4548 20.8751 29.4674 20.7133H29.4654ZM31.341 20.8541C31.3533 20.6921 31.4295 20.5416 31.5527 20.4356C31.6759 20.3297 31.836 20.2769 31.9981 20.2889L32.5976 20.3344C32.7563 20.3453 32.9046 20.4175 33.011 20.5358C33.1174 20.6541 33.1736 20.8091 33.1678 20.9681C33.1619 21.127 33.0945 21.2775 32.9797 21.3876C32.8648 21.4978 32.7117 21.5589 32.5526 21.5581C32.5371 21.5581 32.5212 21.5581 32.5042 21.5581L31.9047 21.5127C31.7429 21.5 31.5927 21.4238 31.487 21.3006C31.3813 21.1774 31.3288 21.0174 31.341 20.8555V20.8541ZM27.5899 23.2546C27.6026 23.0927 27.6789 22.9423 27.8021 22.8364C27.9253 22.7306 28.0855 22.6777 28.2475 22.6895L28.847 22.7349C29.0058 22.7459 29.1541 22.8181 29.2605 22.9364C29.3669 23.0548 29.4231 23.2098 29.4172 23.3689C29.4113 23.5279 29.3437 23.6784 29.2288 23.7885C29.1139 23.8985 28.9607 23.9596 28.8015 23.9587H28.7531L28.1536 23.9132C27.9915 23.9006 27.8411 23.8242 27.7354 23.7007C27.6297 23.5772 27.5773 23.4167 27.5899 23.2546ZM29.4654 23.3959C29.4779 23.2339 29.5542 23.0834 29.6774 22.9774C29.8007 22.8715 29.9609 22.8187 30.123 22.8308L30.7221 22.8758C30.8797 22.8883 31.0263 22.9612 31.1315 23.0793C31.2366 23.1973 31.292 23.3515 31.2862 23.5094C31.2804 23.6674 31.2138 23.8171 31.1003 23.9271C30.9868 24.0371 30.8352 24.0991 30.6771 24.1C30.6616 24.1 30.6461 24.1 30.6287 24.1L30.0292 24.055C29.8674 24.0418 29.7174 23.965 29.6121 23.8415C29.5069 23.718 29.4548 23.5578 29.4674 23.3959H29.4654ZM31.341 23.5372C31.3533 23.3752 31.4295 23.2247 31.5527 23.1188C31.6759 23.0128 31.836 22.96 31.9981 22.9721L32.5976 23.0171C32.7563 23.028 32.9046 23.1002 33.011 23.2185C33.1174 23.3367 33.1736 23.4917 33.1678 23.6507C33.1619 23.8097 33.0945 23.9602 32.9797 24.0703C32.8648 24.1804 32.7117 24.2416 32.5526 24.2408C32.5371 24.2408 32.5212 24.2408 32.5042 24.2408L31.9062 24.1943C31.7441 24.182 31.5936 24.1058 31.4877 23.9827C31.3817 23.8595 31.329 23.6993 31.341 23.5372ZM38.7619 35.6716C38.5395 35.2125 38.1504 34.8554 37.6738 34.6733C37.1972 34.4912 36.6691 34.4978 36.1973 34.6918L27.165 38.4506C26.662 38.4974 26.1551 38.4249 25.6853 38.2391L28.8625 37.2012C29.3501 37.0615 29.7713 36.7514 30.0494 36.3273C30.3276 35.9032 30.4443 35.3933 30.3783 34.8904C30.3122 34.3876 30.0678 33.9251 29.6895 33.5872C29.3113 33.2494 28.8243 33.0585 28.3172 33.0495C27.2283 33.078 26.147 33.2405 25.0979 33.5334C24.0956 33.8399 23.0479 33.9709 22.001 33.9205C21.6816 33.8803 21.3531 33.8314 21.0356 33.784C18.9433 33.4724 16.5713 33.1196 14.5419 35.0373C14.1466 35.4108 13.6917 35.8081 13.2136 36.2175C13.1012 36.1569 12.9798 36.1146 12.8541 36.0921C12.6998 36.0644 12.5415 36.0676 12.3884 36.1015C12.2353 36.1354 12.0905 36.1993 11.9623 36.2896L11.4092 36.6767C11.2787 36.5274 11.1045 36.4229 10.9113 36.3781C10.7721 36.3454 10.6275 36.3425 10.4871 36.3695C10.3467 36.3966 10.2136 36.4529 10.0964 36.5349L7.42489 38.4056C7.20853 38.5575 7.06122 38.789 7.01523 39.0493C6.96925 39.3096 7.02834 39.5775 7.17956 39.7944L12.631 47.5772C12.7834 47.7931 13.0151 47.9398 13.2754 47.9852C13.5357 48.0305 13.8034 47.9708 14.0198 47.8191L15.8102 46.5649C16.0062 46.4246 16.1452 46.2183 16.2016 45.9839C16.2581 45.7495 16.2282 45.5026 16.1174 45.2884L17.5594 44.279C17.7502 44.145 17.8977 43.9581 17.9837 43.7414C18.0696 43.5247 18.0904 43.2875 18.0433 43.0591C18.1641 42.9995 18.2966 42.9676 18.4313 42.9657C18.566 42.9637 18.6994 42.9919 18.8219 43.048C20.7415 43.9435 22.8345 44.406 24.9527 44.4029C26.4134 44.4595 27.8639 44.1364 29.1625 43.4651L37.9838 38.2609C38.4174 38.0082 38.7389 37.6004 38.8833 37.1197C39.0278 36.6391 38.9844 36.1215 38.7619 35.6716ZM13.504 46.6864L8.31524 39.2766L10.5895 37.6851L14.9396 45.6818L13.504 46.6864ZM15.5314 44.206L12.0175 37.7461L12.6402 37.3106L16.8316 43.2967L15.5314 44.206ZM37.3595 37.2056L28.5407 42.4102C26.3734 43.6901 21.9115 43.2246 19.3711 41.9544C19.0633 41.8126 18.7275 41.7424 18.3887 41.7491C18.0499 41.7558 17.7171 41.8393 17.4152 41.9931L14.0178 37.1412C14.5066 36.7226 14.9725 36.3152 15.3843 35.9262C16.9812 34.4174 18.7764 34.685 20.8556 34.9942C21.1798 35.0426 21.5152 35.091 21.8481 35.1345C23.0405 35.2077 24.2365 35.069 25.3805 34.7247C26.3332 34.4576 27.3147 34.3062 28.3036 34.2737C28.5155 34.2793 28.7185 34.3602 28.8761 34.5019C29.0338 34.6435 29.1358 34.8367 29.164 35.0468C29.1921 35.2569 29.1445 35.4702 29.0297 35.6483C28.9148 35.8265 28.7403 35.9579 28.5373 36.0191C28.5242 36.0221 28.5113 36.0258 28.4986 36.0302L22.8444 37.8767C22.6444 37.946 22.4581 38.0497 22.2937 38.183L21.94 38.3983C21.8217 38.4705 21.7313 38.5807 21.6836 38.7109C21.6359 38.8411 21.6338 38.9836 21.6775 39.1152C21.7213 39.2467 21.8083 39.3596 21.9245 39.4353C22.0406 39.511 22.179 39.5451 22.317 39.5321C22.5558 39.483 22.7777 39.3726 22.961 39.2118L23.1846 39.0758C23.917 39.0628 24.6462 39.1774 25.3393 39.4145C26.0132 39.6723 26.7425 39.751 27.4558 39.6429C27.4967 39.6351 27.5365 39.6231 27.5749 39.6071L36.6681 35.8231C36.8511 35.7484 37.0558 35.7466 37.2402 35.8181C37.4246 35.8895 37.5746 36.0288 37.6596 36.2073C37.7453 36.3808 37.762 36.5804 37.7062 36.7657C37.6504 36.951 37.5268 37.1082 37.3595 37.2056ZM10.7313 39.4697L11.4958 40.5613C11.5841 40.6946 11.6168 40.8571 11.587 41.0141C11.5572 41.1712 11.4673 41.3103 11.3363 41.402C11.2054 41.4937 11.0438 41.5306 10.8861 41.5049C10.7283 41.4792 10.5868 41.3929 10.4918 41.2644L9.7248 40.1728C9.63654 40.0395 9.60382 39.877 9.63362 39.72C9.66341 39.5629 9.75336 39.4237 9.8843 39.332C10.0152 39.2404 10.1768 39.2034 10.3346 39.2291C10.4923 39.2548 10.6338 39.3412 10.7289 39.4697H10.7313Z" fill="#043DDB"/>
<path d="M20.6795 91.862H33.9917C34.0722 91.8621 34.1519 91.8463 34.2263 91.8155C34.3007 91.7848 34.3682 91.7396 34.4252 91.6828C34.4821 91.6259 34.5273 91.5583 34.5581 91.484C34.5889 91.4096 34.6048 91.3299 34.6048 91.2494V72.6043C34.6046 72.4919 34.5737 72.3817 34.5152 72.2857C34.4568 72.1898 34.3731 72.1117 34.2733 72.0599L32.6097 71.2006V67.4596C32.6095 67.3661 32.5878 67.2738 32.5464 67.1899C32.5049 67.1061 32.4448 67.0328 32.3707 66.9757L27.375 63.1274C27.2679 63.0448 27.1365 63 27.0012 63C26.866 63 26.7345 63.0448 26.6274 63.1274L21.6318 66.9738C21.5577 67.0309 21.4977 67.1042 21.4563 67.1881C21.4148 67.2719 21.3931 67.3642 21.3928 67.4577V74.7823L20.3984 75.2962C20.2985 75.3477 20.2147 75.4258 20.1562 75.5218C20.0977 75.6178 20.0668 75.7281 20.0669 75.8405V91.2494C20.0669 91.4119 20.1314 91.5677 20.2463 91.6826C20.3612 91.7975 20.517 91.862 20.6795 91.862ZM33.3791 90.6363H27.1621V69.7649L33.3791 72.9779V90.6363ZM22.6184 67.7611L26.9995 64.3865L31.3821 67.7611V70.5676L26.8287 68.214C26.7353 68.1658 26.6311 68.1424 26.5261 68.1461C26.421 68.1498 26.3187 68.1804 26.2289 68.2351C26.1392 68.2898 26.065 68.3666 26.0135 68.4583C25.962 68.5499 25.935 68.6533 25.935 68.7584V72.4359L22.617 74.1503L22.6184 67.7611ZM25.935 73.8135V90.6363H21.2897V87.7122L23.322 86.6617C23.4664 86.5871 23.5752 86.4581 23.6245 86.3033C23.6738 86.1484 23.6596 85.9803 23.585 85.8359C23.548 85.7644 23.4974 85.7009 23.4359 85.649C23.3744 85.5971 23.3033 85.5578 23.2266 85.5334C23.0717 85.4841 22.9036 85.4983 22.7592 85.5729L21.2892 86.3326V84.9903L22.5284 84.3497C22.6728 84.275 22.7816 84.1461 22.8309 83.9913C22.8803 83.8364 22.8661 83.6683 22.7914 83.5239C22.7168 83.3795 22.5879 83.2707 22.433 83.2214C22.2782 83.1721 22.1101 83.1863 21.9657 83.2609L21.2882 83.6103V82.0169L22.5275 81.3762C22.6718 81.3016 22.7807 81.1726 22.83 81.0178C22.8793 80.8629 22.8651 80.6948 22.7905 80.5504C22.7158 80.4061 22.5869 80.2972 22.4321 80.2479C22.2772 80.1986 22.1091 80.2128 21.9647 80.2875L21.2873 80.6373V80.3165L23.3196 79.266C23.4614 79.1899 23.5676 79.061 23.6152 78.9073C23.6629 78.7536 23.6482 78.5873 23.5743 78.4444C23.5005 78.3014 23.3733 78.1932 23.2204 78.1431C23.0674 78.0931 22.9009 78.1051 22.7568 78.1767L21.2868 78.9369V76.2136L25.935 73.8135ZM27.5884 75.2066C27.6007 75.0446 27.6768 74.894 27.8 74.788C27.9232 74.682 28.0835 74.6293 28.2456 74.6415L28.8451 74.6865C29.0038 74.6974 29.152 74.7696 29.2584 74.8879C29.3648 75.0061 29.4211 75.1612 29.4152 75.3201C29.4094 75.4791 29.3419 75.6296 29.2271 75.7397C29.1123 75.8498 28.9592 75.911 28.8001 75.9102C28.7846 75.9102 28.7685 75.9102 28.7517 75.9102L28.1522 75.8652C27.9904 75.8521 27.8404 75.7755 27.735 75.652C27.6296 75.5286 27.5775 75.3685 27.5899 75.2066H27.5884ZM29.464 75.3475C29.4766 75.1854 29.5529 75.035 29.6761 74.9291C29.7993 74.8232 29.9595 74.7704 30.1216 74.7823L30.7206 74.8273C30.8782 74.8398 31.0249 74.9127 31.13 75.0308C31.2351 75.1489 31.2906 75.303 31.2848 75.461C31.2789 75.6189 31.2123 75.7686 31.0988 75.8786C30.9853 75.9887 30.8337 76.0506 30.6756 76.0515C30.6601 76.0515 30.6447 76.0515 30.6272 76.0515L30.0277 76.0065C29.8661 75.9931 29.7165 75.9162 29.6115 75.7927C29.5065 75.6692 29.4546 75.5091 29.4674 75.3475H29.464ZM31.3395 75.4888C31.3518 75.3267 31.4279 75.1761 31.5511 75.0701C31.6743 74.9642 31.8346 74.9114 31.9966 74.9236L32.5962 74.9686C32.7538 74.9811 32.9004 75.054 33.0055 75.1721C33.1107 75.2902 33.1661 75.4443 33.1603 75.6023C33.1545 75.7602 33.0879 75.9099 32.9744 76.0199C32.8609 76.1299 32.7093 76.1919 32.5512 76.1928C32.5357 76.1928 32.5197 76.1928 32.5028 76.1928L31.9032 76.1478C31.7414 76.1347 31.5913 76.058 31.4859 75.9345C31.3805 75.8109 31.3284 75.6506 31.341 75.4888H31.3395ZM27.5899 77.8893C27.6021 77.7271 27.6783 77.5763 27.8016 77.4702C27.9249 77.364 28.0852 77.3112 28.2475 77.3232L28.847 77.3682C29.0046 77.3807 29.1513 77.4536 29.2565 77.5718C29.3616 77.6899 29.417 77.8441 29.4111 78.0021C29.4052 78.1601 29.3385 78.3097 29.2249 78.4197C29.1114 78.5297 28.9597 78.5916 28.8015 78.5924C28.7861 78.5924 28.7706 78.5924 28.7531 78.5924L28.1536 78.5474C27.9917 78.5347 27.8414 78.4582 27.7357 78.3349C27.63 78.2115 27.5776 78.0513 27.5899 77.8893ZM29.4654 78.0301C29.478 77.8681 29.5543 77.7177 29.6776 77.6118C29.8008 77.5059 29.961 77.4531 30.123 77.4649L30.7221 77.5104C30.8808 77.5213 31.029 77.5936 31.1354 77.7118C31.2418 77.8301 31.2981 77.9851 31.2922 78.1441C31.2864 78.3031 31.2189 78.4535 31.1041 78.5637C30.9893 78.6738 30.8362 78.7349 30.6771 78.7342H30.6287L30.0292 78.6887C29.8674 78.6756 29.7175 78.5989 29.6122 78.4755C29.5069 78.352 29.4548 78.1919 29.4674 78.0301H29.4654ZM31.341 78.1714C31.3533 78.0094 31.4295 77.8589 31.5527 77.753C31.6759 77.647 31.836 77.5942 31.9981 77.6062L32.5976 77.6512C32.7552 77.6638 32.9019 77.7367 33.007 77.8547C33.1121 77.9728 33.1676 78.1269 33.1617 78.2849C33.1559 78.4429 33.0893 78.5925 32.9758 78.7026C32.8623 78.8126 32.7107 78.8746 32.5526 78.8755C32.5371 78.8755 32.5212 78.8755 32.5042 78.8755L31.9047 78.8305C31.8244 78.8242 31.7461 78.8022 31.6743 78.7657C31.6025 78.7292 31.5386 78.6789 31.4863 78.6177C31.4339 78.5565 31.3942 78.4856 31.3692 78.409C31.3443 78.3325 31.3347 78.2517 31.341 78.1714ZM27.5899 80.572C27.6026 80.41 27.6789 80.2597 27.8021 80.1538C27.9253 80.0479 28.0855 79.995 28.2475 80.0068L28.847 80.0518C29.0046 80.0643 29.1513 80.1373 29.2565 80.2554C29.3616 80.3735 29.417 80.5277 29.4111 80.6857C29.4052 80.8437 29.3385 80.9934 29.2249 81.1034C29.1114 81.2134 28.9597 81.2752 28.8015 81.276C28.7861 81.276 28.7706 81.276 28.7531 81.276L28.1536 81.231C28.0733 81.2248 27.995 81.2028 27.9232 81.1663C27.8515 81.1298 27.7876 81.0795 27.7352 81.0183C27.6829 80.9571 27.6431 80.8862 27.6181 80.8096C27.5932 80.733 27.5836 80.6523 27.5899 80.572ZM29.4654 80.7133C29.4779 80.5512 29.5542 80.4007 29.6774 80.2948C29.8007 80.1888 29.9609 80.1361 30.123 80.1481L30.7221 80.1931C30.8797 80.2056 31.0263 80.2785 31.1315 80.3966C31.2366 80.5147 31.292 80.6688 31.2862 80.8268C31.2804 80.9848 31.2138 81.1344 31.1003 81.2444C30.9868 81.3545 30.8352 81.4164 30.6771 81.4173C30.6616 81.4173 30.6461 81.4173 30.6287 81.4173L30.0292 81.3723C29.8674 81.3591 29.7174 81.2823 29.6121 81.1588C29.5069 81.0353 29.4548 80.8751 29.4674 80.7133H29.4654ZM31.341 80.8541C31.3533 80.6921 31.4295 80.5416 31.5527 80.4356C31.6759 80.3297 31.836 80.2769 31.9981 80.2889L32.5976 80.3344C32.7563 80.3453 32.9046 80.4175 33.011 80.5358C33.1174 80.6541 33.1736 80.8091 33.1678 80.9681C33.1619 81.127 33.0945 81.2775 32.9797 81.3876C32.8648 81.4978 32.7117 81.5589 32.5526 81.5581C32.5371 81.5581 32.5212 81.5581 32.5042 81.5581L31.9047 81.5127C31.7429 81.5 31.5927 81.4238 31.487 81.3006C31.3813 81.1774 31.3288 81.0174 31.341 80.8555V80.8541ZM27.5899 83.2546C27.6026 83.0927 27.6789 82.9423 27.8021 82.8364C27.9253 82.7306 28.0855 82.6777 28.2475 82.6895L28.847 82.7349C29.0058 82.7459 29.1541 82.8181 29.2605 82.9364C29.3669 83.0548 29.4231 83.2098 29.4172 83.3689C29.4113 83.5279 29.3437 83.6784 29.2288 83.7885C29.1139 83.8985 28.9607 83.9596 28.8015 83.9587H28.7531L28.1536 83.9132C27.9915 83.9006 27.8411 83.8242 27.7354 83.7007C27.6297 83.5772 27.5773 83.4167 27.5899 83.2546ZM29.4654 83.3959C29.4779 83.2339 29.5542 83.0834 29.6774 82.9774C29.8007 82.8715 29.9609 82.8187 30.123 82.8308L30.7221 82.8758C30.8797 82.8883 31.0263 82.9612 31.1315 83.0793C31.2366 83.1973 31.292 83.3515 31.2862 83.5094C31.2804 83.6674 31.2138 83.8171 31.1003 83.9271C30.9868 84.0371 30.8352 84.0991 30.6771 84.1C30.6616 84.1 30.6461 84.1 30.6287 84.1L30.0292 84.055C29.8674 84.0418 29.7174 83.965 29.6121 83.8415C29.5069 83.718 29.4548 83.5578 29.4674 83.3959H29.4654ZM31.341 83.5372C31.3533 83.3752 31.4295 83.2247 31.5527 83.1188C31.6759 83.0128 31.836 82.96 31.9981 82.9721L32.5976 83.0171C32.7563 83.028 32.9046 83.1002 33.011 83.2185C33.1174 83.3367 33.1736 83.4917 33.1678 83.6507C33.1619 83.8097 33.0945 83.9602 32.9797 84.0703C32.8648 84.1804 32.7117 84.2416 32.5526 84.2408C32.5371 84.2408 32.5212 84.2408 32.5042 84.2408L31.9062 84.1943C31.7441 84.182 31.5936 84.1058 31.4877 83.9827C31.3817 83.8595 31.329 83.6993 31.341 83.5372ZM38.7619 95.6716C38.5395 95.2125 38.1504 94.8554 37.6738 94.6733C37.1972 94.4912 36.6691 94.4978 36.1973 94.6918L27.165 98.4506C26.662 98.4974 26.1551 98.4249 25.6853 98.2391L28.8625 97.2012C29.3501 97.0615 29.7713 96.7514 30.0494 96.3273C30.3276 95.9032 30.4443 95.3933 30.3783 94.8904C30.3122 94.3876 30.0678 93.9251 29.6895 93.5872C29.3113 93.2494 28.8243 93.0585 28.3172 93.0495C27.2283 93.078 26.147 93.2405 25.0979 93.5334C24.0956 93.8399 23.0479 93.9709 22.001 93.9205C21.6816 93.8803 21.3531 93.8314 21.0356 93.784C18.9433 93.4724 16.5713 93.1196 14.5419 95.0373C14.1466 95.4108 13.6917 95.8081 13.2136 96.2175C13.1012 96.1569 12.9798 96.1146 12.8541 96.0921C12.6998 96.0644 12.5415 96.0676 12.3884 96.1015C12.2353 96.1354 12.0905 96.1993 11.9623 96.2896L11.4092 96.6767C11.2787 96.5274 11.1045 96.4229 10.9113 96.3781C10.7721 96.3454 10.6275 96.3425 10.4871 96.3695C10.3467 96.3966 10.2136 96.4529 10.0964 96.5349L7.42489 98.4056C7.20853 98.5575 7.06122 98.789 7.01523 99.0493C6.96925 99.3096 7.02834 99.5775 7.17956 99.7944L12.631 107.577C12.7834 107.793 13.0151 107.94 13.2754 107.985C13.5357 108.031 13.8034 107.971 14.0198 107.819L15.8102 106.565C16.0062 106.425 16.1452 106.218 16.2016 105.984C16.2581 105.749 16.2282 105.503 16.1174 105.288L17.5594 104.279C17.7502 104.145 17.8977 103.958 17.9837 103.741C18.0696 103.525 18.0904 103.288 18.0433 103.059C18.1641 103 18.2966 102.968 18.4313 102.966C18.566 102.964 18.6994 102.992 18.8219 103.048C20.7415 103.943 22.8345 104.406 24.9527 104.403C26.4134 104.46 27.8639 104.136 29.1625 103.465L37.9838 98.2609C38.4174 98.0082 38.7389 97.6004 38.8833 97.1197C39.0278 96.6391 38.9844 96.1215 38.7619 95.6716ZM13.504 106.686L8.31524 99.2766L10.5895 97.6851L14.9396 105.682L13.504 106.686ZM15.5314 104.206L12.0175 97.7461L12.6402 97.3106L16.8316 103.297L15.5314 104.206ZM37.3595 97.2056L28.5407 102.41C26.3734 103.69 21.9115 103.225 19.3711 101.954C19.0633 101.813 18.7275 101.742 18.3887 101.749C18.0499 101.756 17.7171 101.839 17.4152 101.993L14.0178 97.1412C14.5066 96.7226 14.9725 96.3152 15.3843 95.9262C16.9812 94.4174 18.7764 94.685 20.8556 94.9942C21.1798 95.0426 21.5152 95.091 21.8481 95.1345C23.0405 95.2077 24.2365 95.069 25.3805 94.7247C26.3332 94.4576 27.3147 94.3062 28.3036 94.2737C28.5155 94.2793 28.7185 94.3602 28.8761 94.5019C29.0338 94.6435 29.1358 94.8367 29.164 95.0468C29.1921 95.2569 29.1445 95.4702 29.0297 95.6483C28.9148 95.8265 28.7403 95.9579 28.5373 96.0191C28.5242 96.0221 28.5113 96.0258 28.4986 96.0302L22.8444 97.8767C22.6444 97.946 22.4581 98.0497 22.2937 98.183L21.94 98.3983C21.8217 98.4705 21.7313 98.5807 21.6836 98.7109C21.6359 98.8411 21.6338 98.9836 21.6775 99.1152C21.7213 99.2467 21.8083 99.3596 21.9245 99.4353C22.0406 99.511 22.179 99.5451 22.317 99.5321C22.5558 99.483 22.7777 99.3726 22.961 99.2118L23.1846 99.0758C23.917 99.0628 24.6462 99.1774 25.3393 99.4145C26.0132 99.6723 26.7425 99.751 27.4558 99.6429C27.4967 99.6351 27.5365 99.6231 27.5749 99.6071L36.6681 95.8231C36.8511 95.7484 37.0558 95.7466 37.2402 95.8181C37.4246 95.8895 37.5746 96.0288 37.6596 96.2073C37.7453 96.3808 37.762 96.5804 37.7062 96.7657C37.6504 96.951 37.5268 97.1082 37.3595 97.2056ZM10.7313 99.4697L11.4958 100.561C11.5841 100.695 11.6168 100.857 11.587 101.014C11.5572 101.171 11.4673 101.31 11.3363 101.402C11.2054 101.494 11.0438 101.531 10.8861 101.505C10.7283 101.479 10.5868 101.393 10.4918 101.264L9.7248 100.173C9.63654 100.039 9.60382 99.877 9.63362 99.72C9.66341 99.5629 9.75336 99.4237 9.8843 99.332C10.0152 99.2404 10.1768 99.2034 10.3346 99.2291C10.4923 99.2548 10.6338 99.3412 10.7289 99.4697H10.7313Z" fill="white"/>
</svg>
